<svg xmlns="http://www.w3.org/2000/svg" width="88" height="88" viewBox="0 0 88 88" fill="none">
    <g clip-path="url(#clip0_718_1818)">
        <path
            d="M57.0918 52.4585L67.5494 60.4047L41.5705 65.9926C39.9959 66.2074 38.4967 65.1699 38.2818 63.5953L36.7552 37.0058L47.903 45.4764C48.7822 37.9662 45.9222 30.2891 39.6153 25.4969C35.9312 22.6976 31.768 21.0868 27.4701 20.8973C35.0425 15.7134 45.265 15.8261 52.9739 21.6837C62.5826 28.9849 64.9377 42.0638 57.0918 52.4585Z"
            fill="#FFB500" />
        <path
            d="M50.4876 21.4172C42.4254 15.2911 31.5627 14.9033 23.4558 20.4522C23.2147 20.6179 23.0317 20.8552 22.9327 21.1305C22.8337 21.4058 22.8236 21.7052 22.904 21.9865C22.9843 22.2678 23.151 22.5168 23.3805 22.6983C23.61 22.8798 23.8907 22.9846 24.183 22.9979C28.0486 23.1674 31.8479 24.6512 35.475 27.4072C40.402 31.151 43.2512 37.2602 43.2327 43.77L34.1631 36.8785C33.9505 36.7174 33.6961 36.6207 33.4302 36.5996C33.1643 36.5786 32.8979 36.6342 32.6625 36.7598C32.4272 36.8854 32.2328 37.0759 32.1023 37.3085C31.9718 37.5412 31.9107 37.8064 31.9262 38.0727L33.5234 64.5709C33.5254 64.6052 33.5289 64.6406 33.5337 64.6758C33.6052 65.1956 33.7791 65.6961 34.0454 66.1483C34.3116 66.6005 34.6649 66.9954 35.0848 67.3101C36.024 68.0237 37.2553 68.339 38.4637 68.1741C38.4962 68.1697 38.5287 68.1639 38.5603 68.1576L64.2177 62.7915C64.503 62.773 64.7757 62.6673 64.999 62.4887C65.2223 62.3101 65.3853 62.0672 65.466 61.7929C65.5467 61.5186 65.5412 61.2262 65.4502 60.9551C65.3592 60.684 65.1872 60.4475 64.9574 60.2774L55.5782 53.1507C62.7286 42.578 60.6593 29.1461 50.4876 21.4172ZM28.5357 20.8504C35.0776 18.1221 42.8087 19.0873 48.7993 23.6392C58.0754 30.6877 59.6848 43.1381 52.5423 52.601C52.3196 52.8958 52.2229 53.2668 52.2733 53.6328C52.3237 53.9987 52.5172 54.3298 52.8114 54.5533L60.8336 60.6489L38.0445 65.4138C37.2331 65.5053 36.4229 65.031 36.3048 64.3408L34.8945 40.9392L43.6226 47.5712C43.8185 47.7202 44.0504 47.8147 44.2947 47.8451C44.539 47.8756 44.787 47.8408 45.0135 47.7445C45.24 47.6481 45.437 47.4935 45.5845 47.2964C45.7319 47.0993 45.8246 46.8667 45.8532 46.6222C46.8361 38.2188 43.5065 30.005 37.1634 25.1852C34.3852 23.0742 31.4965 21.6234 28.5357 20.8504Z"
            fill="#616161" />
    </g>
    <defs>
        <clipPath id="clip0_718_1818">
            <rect width="62.3106" height="62.3106" fill="white"
                transform="matrix(0.796221 0.605006 0.605006 -0.796221 0 49.613)" />
        </clipPath>
    </defs>
</svg>