<svg width="67" height="66" viewBox="0 0 67 66" fill="none" xmlns="http://www.w3.org/2000/svg">
<path d="M43.9874 23.0676C46.1576 24.4398 49.0308 24.2297 50.8786 22.3123C52.9829 20.1286 52.9133 16.6831 50.7355 14.5845C48.5577 12.4858 45.1063 12.5497 43.0077 14.7275C41.2626 16.5384 41.0503 19.1986 42.2395 21.2691L16.4449 28.8493L14.773 9.18204C16.2904 9.51432 17.899 9.12417 19.0282 7.95242C20.7733 6.14152 20.6736 3.27204 18.8627 1.52697C17.0518 -0.218098 14.1747 -0.217149 12.4297 1.59375C10.6846 3.40464 10.7842 6.27412 12.5951 8.01919C13.0744 8.48112 13.6032 8.78521 14.1833 9.03603L0.213505 30.876C-0.326893 34.9664 5.37681 43.8525 14.2656 52.4182C22.9413 60.7786 32.023 65.9462 36.1947 65.5493L58.0508 51.8111L38.738 50.6516L43.9874 23.0676ZM64.9518 45.9407C63.1409 44.1957 60.2697 44.2023 58.5247 46.0132C56.7796 47.8241 56.8792 50.6936 58.6901 52.4386C60.501 54.1837 63.3722 54.1771 65.1173 52.3662C66.8623 50.5553 66.7568 47.6801 64.9518 45.9407Z" fill="#FFB500"/>
</svg>
