<svg width="446" height="195" viewBox="0 0 446 195" fill="none" xmlns="http://www.w3.org/2000/svg">
<path d="M363.503 42.48H373.943V44H361.703V15.92H363.503V42.48ZM398.392 31.68C398.392 32.64 398.365 33.36 398.312 33.84H379.552C379.605 35.7867 380.032 37.4267 380.832 38.76C381.632 40.0933 382.685 41.0933 383.992 41.76C385.298 42.4267 386.725 42.76 388.272 42.76C390.405 42.76 392.192 42.24 393.632 41.2C395.072 40.1333 395.978 38.6933 396.352 36.88H398.232C397.805 39.0933 396.712 40.8933 394.952 42.28C393.192 43.64 390.965 44.32 388.272 44.32C386.245 44.32 384.432 43.8667 382.832 42.96C381.232 42.0533 379.978 40.76 379.072 39.08C378.165 37.3733 377.712 35.3867 377.712 33.12C377.712 30.8533 378.152 28.88 379.032 27.2C379.938 25.52 381.192 24.24 382.792 23.36C384.392 22.4533 386.218 22 388.272 22C390.352 22 392.152 22.4533 393.672 23.36C395.218 24.24 396.392 25.4267 397.192 26.92C397.992 28.3867 398.392 29.9733 398.392 31.68ZM396.592 32.36C396.672 30.44 396.325 28.8133 395.552 27.48C394.805 26.1467 393.778 25.16 392.472 24.52C391.165 23.8533 389.752 23.52 388.232 23.52C386.712 23.52 385.298 23.8533 383.992 24.52C382.712 25.16 381.658 26.1467 380.832 27.48C380.032 28.8133 379.605 30.44 379.552 32.36H396.592ZM407.312 23.84V38.2C407.312 39.8 407.605 40.9067 408.192 41.52C408.778 42.1067 409.818 42.4 411.312 42.4H413.752V44H411.032C409.138 44 407.738 43.56 406.832 42.68C405.952 41.7733 405.512 40.28 405.512 38.2V23.84H402.232V22.28H405.512V16.76H407.312V22.28H413.752V23.84H407.312ZM419.459 15.92H421.739L418.619 24.12H417.259L419.459 15.92ZM434.214 44.32C431.787 44.32 429.8 43.7867 428.254 42.72C426.734 41.6533 425.88 40.1333 425.694 38.16H427.534C427.667 39.5733 428.307 40.6933 429.454 41.52C430.627 42.3467 432.214 42.76 434.214 42.76C435.867 42.76 437.174 42.3467 438.134 41.52C439.12 40.6667 439.614 39.6267 439.614 38.4C439.614 37.5467 439.347 36.8533 438.814 36.32C438.307 35.76 437.667 35.3333 436.894 35.04C436.12 34.7467 435.067 34.4267 433.734 34.08C432.134 33.6533 430.84 33.24 429.854 32.84C428.867 32.4133 428.027 31.7867 427.334 30.96C426.64 30.1333 426.294 29.0267 426.294 27.64C426.294 26.6267 426.6 25.6933 427.214 24.84C427.827 23.96 428.68 23.2667 429.774 22.76C430.867 22.2533 432.107 22 433.494 22C435.76 22 437.587 22.5733 438.974 23.72C440.387 24.84 441.147 26.4 441.254 28.4H439.454C439.374 26.96 438.814 25.7867 437.774 24.88C436.734 23.9733 435.294 23.52 433.454 23.52C431.907 23.52 430.627 23.92 429.614 24.72C428.6 25.52 428.094 26.4933 428.094 27.64C428.094 28.6533 428.374 29.48 428.934 30.12C429.52 30.7333 430.227 31.2133 431.054 31.56C431.907 31.88 433.027 32.2267 434.414 32.6C435.934 33 437.147 33.4 438.054 33.8C438.987 34.1733 439.774 34.7333 440.414 35.48C441.054 36.2 441.374 37.1733 441.374 38.4C441.374 39.52 441.067 40.5333 440.454 41.44C439.84 42.3467 438.987 43.0533 437.894 43.56C436.8 44.0667 435.574 44.32 434.214 44.32Z" fill="#003362"/>
<path d="M189.586 136C185.786 136 182.337 135.071 179.24 133.213C176.144 131.356 173.645 128.879 171.745 125.782C169.915 122.617 169 119.108 169 115.255V82.5384C169 78.8229 169.915 75.417 171.745 72.3208C173.645 69.1557 176.144 66.6443 179.24 64.7866C182.407 62.9289 185.856 62 189.586 62C193.457 62 196.941 62.9289 200.038 64.7866C203.205 66.5755 205.703 69.0181 207.533 72.1144C209.363 75.2106 210.278 78.6853 210.278 82.5384V87.2859C210.278 87.5611 210.102 87.6987 209.75 87.6987H197.926C197.645 87.6987 197.504 87.5611 197.504 87.2859V83.364C197.504 80.7494 196.73 78.5821 195.181 76.8619C193.703 75.1418 191.838 74.2817 189.586 74.2817C187.545 74.2817 185.715 75.1074 184.097 76.7587C182.548 78.41 181.774 80.3366 181.774 82.5384V115.255C181.774 117.526 182.548 119.487 184.097 121.138C185.645 122.721 187.475 123.512 189.586 123.512C191.838 123.512 193.703 122.721 195.181 121.138C196.73 119.556 197.504 117.595 197.504 115.255V110.198H190.114C189.762 110.198 189.586 110.026 189.586 109.682V98.1227C189.586 97.7787 189.762 97.6067 190.114 97.6067H209.856C210.137 97.6067 210.278 97.7787 210.278 98.1227V115.255C210.278 119.108 209.328 122.617 207.428 125.782C205.598 128.879 203.134 131.356 200.038 133.213C196.941 135.071 193.457 136 189.586 136Z" fill="#003362"/>
<path d="M237.325 136C233.524 136 230.04 135.071 226.873 133.213C223.776 131.287 221.278 128.775 219.378 125.679C217.477 122.514 216.527 119.04 216.527 115.255L216.633 82.5384C216.633 78.7541 217.548 75.3138 219.378 72.2176C221.278 69.1213 223.812 66.6443 226.979 64.7866C230.146 62.9289 233.594 62 237.325 62C241.125 62 244.574 62.9289 247.67 64.7866C250.767 66.6443 253.23 69.1213 255.06 72.2176C256.961 75.3138 257.911 78.7541 257.911 82.5384L258.016 115.255C258.016 119.04 257.066 122.514 255.166 125.679C253.336 128.775 250.838 131.287 247.67 133.213C244.574 135.071 241.125 136 237.325 136ZM237.325 123.512C239.436 123.512 241.266 122.686 242.814 121.035C244.433 119.315 245.242 117.388 245.242 115.255L245.137 82.5384C245.137 80.2678 244.398 78.3412 242.92 76.7587C241.442 75.1762 239.577 74.3849 237.325 74.3849C235.143 74.3849 233.278 75.1762 231.729 76.7587C230.181 78.2724 229.407 80.199 229.407 82.5384V115.255C229.407 117.526 230.181 119.487 231.729 121.138C233.278 122.721 235.143 123.512 237.325 123.512Z" fill="#003362"/>
<path d="M275.26 134.968C274.978 134.968 274.837 134.796 274.837 134.452V75.6234H261.113C260.761 75.6234 260.585 75.4514 260.585 75.1074L260.691 63.5481C260.691 63.2729 260.832 63.1353 261.113 63.1353H301.23C301.582 63.1353 301.758 63.2729 301.758 63.5481V75.1074C301.758 75.4514 301.617 75.6234 301.336 75.6234H287.506L287.611 134.452C287.611 134.796 287.471 134.968 287.189 134.968H275.26Z" fill="#003362"/>
<path d="M307.5 134.968C307.148 134.968 306.972 134.796 306.972 134.452L307.078 63.5481C307.078 63.2729 307.218 63.1353 307.5 63.1353H319.324C319.605 63.1353 319.746 63.2729 319.746 63.5481L319.852 134.452C319.852 134.796 319.711 134.968 319.429 134.968H307.5Z" fill="#FFB500"/>
<path d="M350.779 136C346.275 136 342.299 135.071 338.85 133.213C335.401 131.287 332.692 128.775 330.721 125.679C328.821 122.514 327.871 119.04 327.871 115.255L327.976 82.5384C327.976 78.7541 328.926 75.3138 330.827 72.2176C332.797 69.1213 335.507 66.6443 338.956 64.7866C342.404 62.9289 346.346 62 350.779 62C355.284 62 359.225 62.9289 362.603 64.7866C365.982 66.6443 368.621 69.1213 370.521 72.2176C372.492 75.3138 373.477 78.7541 373.477 82.5384L373.583 115.255C373.583 119.04 372.597 122.514 370.627 125.679C368.726 128.775 366.052 131.287 362.603 133.213C359.225 135.071 355.284 136 350.779 136ZM360.809 115.255L360.703 82.5384C360.703 80.1302 359.788 78.1692 357.958 76.6555C356.128 75.1418 353.735 74.3849 350.779 74.3849C347.753 74.3849 345.325 75.1418 343.495 76.6555C341.665 78.1692 340.75 80.1302 340.75 82.5384V115.255C340.75 117.801 341.665 119.831 343.495 121.344C345.325 122.789 347.753 123.512 350.779 123.512C353.735 123.512 356.128 122.789 357.958 121.344C359.859 119.831 360.809 117.801 360.809 115.255Z" fill="#FFB500"/>
<path d="M382.141 134.968C381.789 134.968 381.613 134.796 381.613 134.452L381.719 63.5481C381.719 63.2729 381.86 63.1353 382.141 63.1353H393.965C394.247 63.1353 394.387 63.2729 394.387 63.5481L394.493 134.452C394.493 134.796 394.352 134.968 394.071 134.968H382.141Z" fill="#003362"/>
<path d="M404.729 134.968C404.166 134.968 403.885 134.727 403.885 134.245L403.779 63.9609C403.779 63.4105 404.061 63.1353 404.624 63.1353H414.125L431.966 103.799L431.438 63.9609C431.438 63.4105 431.755 63.1353 432.389 63.1353H442.84C443.262 63.1353 443.473 63.4105 443.473 63.9609L443.579 134.349C443.579 134.762 443.403 134.968 443.051 134.968H433.761L415.497 96.9874L416.236 134.142C416.236 134.693 415.92 134.968 415.286 134.968H404.729Z" fill="#003362"/>
<path d="M0.5 164.75H445.018" stroke="#96B2CF" stroke-width="0.5"/>
<path d="M66.644 181.96L67.076 182.74L65.408 183.436L67.088 184.12L66.632 184.924L65.18 183.868L65.372 185.68H64.472L64.652 183.868L63.2 184.936L62.732 184.12L64.4 183.424L62.732 182.752L63.176 181.948L64.664 183.016L64.472 181.192H65.384L65.18 183.016L66.644 181.96ZM77.5872 181.636V182.524H75.3072V190H74.2152V182.524H71.9232V181.636H77.5872ZM82.4353 183.304C82.9313 183.304 83.3793 183.412 83.7793 183.628C84.1793 183.836 84.4913 184.152 84.7153 184.576C84.9473 185 85.0633 185.516 85.0633 186.124V190H83.9833V186.28C83.9833 185.624 83.8193 185.124 83.4913 184.78C83.1633 184.428 82.7153 184.252 82.1473 184.252C81.5713 184.252 81.1113 184.432 80.7673 184.792C80.4313 185.152 80.2633 185.676 80.2633 186.364V190H79.1713V181.12H80.2633V184.36C80.4793 184.024 80.7753 183.764 81.1513 183.58C81.5353 183.396 81.9633 183.304 82.4353 183.304ZM93.0871 186.46C93.0871 186.668 93.0751 186.888 93.0511 187.12H87.7951C87.8351 187.768 88.0551 188.276 88.4551 188.644C88.8631 189.004 89.3551 189.184 89.9311 189.184C90.4031 189.184 90.7951 189.076 91.1071 188.86C91.4271 188.636 91.6511 188.34 91.7791 187.972H92.9551C92.7791 188.604 92.4271 189.12 91.8991 189.52C91.3711 189.912 90.7151 190.108 89.9311 190.108C89.3071 190.108 88.7471 189.968 88.2511 189.688C87.7631 189.408 87.3791 189.012 87.0991 188.5C86.8191 187.98 86.6791 187.38 86.6791 186.7C86.6791 186.02 86.8151 185.424 87.0871 184.912C87.3591 184.4 87.7391 184.008 88.2271 183.736C88.7231 183.456 89.2911 183.316 89.9311 183.316C90.5551 183.316 91.1071 183.452 91.5871 183.724C92.0671 183.996 92.4351 184.372 92.6911 184.852C92.9551 185.324 93.0871 185.86 93.0871 186.46ZM91.9591 186.232C91.9591 185.816 91.8671 185.46 91.6831 185.164C91.4991 184.86 91.2471 184.632 90.9271 184.48C90.6151 184.32 90.2671 184.24 89.8831 184.24C89.3311 184.24 88.8591 184.416 88.4671 184.768C88.0831 185.12 87.8631 185.608 87.8071 186.232H91.9591ZM99.2997 184.492C99.4917 184.116 99.7637 183.824 100.116 183.616C100.476 183.408 100.912 183.304 101.424 183.304V184.432H101.136C99.9117 184.432 99.2997 185.096 99.2997 186.424V190H98.2077V183.424H99.2997V184.492ZM108.924 186.46C108.924 186.668 108.912 186.888 108.888 187.12H103.632C103.672 187.768 103.892 188.276 104.292 188.644C104.7 189.004 105.192 189.184 105.768 189.184C106.24 189.184 106.632 189.076 106.944 188.86C107.264 188.636 107.488 188.34 107.616 187.972H108.792C108.616 188.604 108.264 189.12 107.736 189.52C107.208 189.912 106.552 190.108 105.768 190.108C105.144 190.108 104.584 189.968 104.088 189.688C103.6 189.408 103.216 189.012 102.936 188.5C102.656 187.98 102.516 187.38 102.516 186.7C102.516 186.02 102.652 185.424 102.924 184.912C103.196 184.4 103.576 184.008 104.064 183.736C104.56 183.456 105.128 183.316 105.768 183.316C106.392 183.316 106.944 183.452 107.424 183.724C107.904 183.996 108.272 184.372 108.528 184.852C108.792 185.324 108.924 185.86 108.924 186.46ZM107.796 186.232C107.796 185.816 107.704 185.46 107.52 185.164C107.336 184.86 107.084 184.632 106.764 184.48C106.452 184.32 106.104 184.24 105.72 184.24C105.168 184.24 104.696 184.416 104.304 184.768C103.92 185.12 103.7 185.608 103.644 186.232H107.796ZM112.934 190.108C112.43 190.108 111.978 190.024 111.578 189.856C111.178 189.68 110.862 189.44 110.63 189.136C110.398 188.824 110.27 188.468 110.246 188.068H111.374C111.406 188.396 111.558 188.664 111.83 188.872C112.11 189.08 112.474 189.184 112.922 189.184C113.338 189.184 113.666 189.092 113.906 188.908C114.146 188.724 114.266 188.492 114.266 188.212C114.266 187.924 114.138 187.712 113.882 187.576C113.626 187.432 113.23 187.292 112.694 187.156C112.206 187.028 111.806 186.9 111.494 186.772C111.19 186.636 110.926 186.44 110.702 186.184C110.486 185.92 110.378 185.576 110.378 185.152C110.378 184.816 110.478 184.508 110.678 184.228C110.878 183.948 111.162 183.728 111.53 183.568C111.898 183.4 112.318 183.316 112.79 183.316C113.518 183.316 114.106 183.5 114.554 183.868C115.002 184.236 115.242 184.74 115.274 185.38H114.182C114.158 185.036 114.018 184.76 113.762 184.552C113.514 184.344 113.178 184.24 112.754 184.24C112.362 184.24 112.05 184.324 111.818 184.492C111.586 184.66 111.47 184.88 111.47 185.152C111.47 185.368 111.538 185.548 111.674 185.692C111.818 185.828 111.994 185.94 112.202 186.028C112.418 186.108 112.714 186.2 113.09 186.304C113.562 186.432 113.946 186.56 114.242 186.688C114.538 186.808 114.79 186.992 114.998 187.24C115.214 187.488 115.326 187.812 115.334 188.212C115.334 188.572 115.234 188.896 115.034 189.184C114.834 189.472 114.55 189.7 114.182 189.868C113.822 190.028 113.406 190.108 112.934 190.108ZM122.947 183.424V190H121.855V189.028C121.647 189.364 121.355 189.628 120.979 189.82C120.611 190.004 120.203 190.096 119.755 190.096C119.243 190.096 118.783 189.992 118.375 189.784C117.967 189.568 117.643 189.248 117.403 188.824C117.171 188.4 117.055 187.884 117.055 187.276V183.424H118.135V187.132C118.135 187.78 118.299 188.28 118.627 188.632C118.955 188.976 119.403 189.148 119.971 189.148C120.555 189.148 121.015 188.968 121.351 188.608C121.687 188.248 121.855 187.724 121.855 187.036V183.424H122.947ZM126.123 181.12V190H125.031V181.12H126.123ZM129.556 184.324V188.2C129.556 188.52 129.624 188.748 129.76 188.884C129.896 189.012 130.132 189.076 130.468 189.076H131.272V190H130.288C129.68 190 129.224 189.86 128.92 189.58C128.616 189.3 128.464 188.84 128.464 188.2V184.324H127.612V183.424H128.464V181.768H129.556V183.424H131.272V184.324H129.556ZM136.838 182.356C136.63 182.356 136.454 182.284 136.31 182.14C136.166 181.996 136.094 181.82 136.094 181.612C136.094 181.404 136.166 181.228 136.31 181.084C136.454 180.94 136.63 180.868 136.838 180.868C137.038 180.868 137.206 180.94 137.342 181.084C137.486 181.228 137.558 181.404 137.558 181.612C137.558 181.82 137.486 181.996 137.342 182.14C137.206 182.284 137.038 182.356 136.838 182.356ZM137.366 183.424V190H136.274V183.424H137.366ZM141.796 190.108C141.292 190.108 140.84 190.024 140.44 189.856C140.04 189.68 139.724 189.44 139.492 189.136C139.26 188.824 139.132 188.468 139.108 188.068H140.236C140.268 188.396 140.42 188.664 140.692 188.872C140.972 189.08 141.336 189.184 141.784 189.184C142.2 189.184 142.528 189.092 142.768 188.908C143.008 188.724 143.128 188.492 143.128 188.212C143.128 187.924 143 187.712 142.744 187.576C142.488 187.432 142.092 187.292 141.556 187.156C141.068 187.028 140.668 186.9 140.356 186.772C140.052 186.636 139.788 186.44 139.564 186.184C139.348 185.92 139.24 185.576 139.24 185.152C139.24 184.816 139.34 184.508 139.54 184.228C139.74 183.948 140.024 183.728 140.392 183.568C140.76 183.4 141.18 183.316 141.652 183.316C142.38 183.316 142.968 183.5 143.416 183.868C143.864 184.236 144.104 184.74 144.136 185.38H143.044C143.02 185.036 142.88 184.76 142.624 184.552C142.376 184.344 142.04 184.24 141.616 184.24C141.224 184.24 140.912 184.324 140.68 184.492C140.448 184.66 140.332 184.88 140.332 185.152C140.332 185.368 140.4 185.548 140.536 185.692C140.68 185.828 140.856 185.94 141.064 186.028C141.28 186.108 141.576 186.2 141.952 186.304C142.424 186.432 142.808 186.56 143.104 186.688C143.4 186.808 143.652 186.992 143.86 187.24C144.076 187.488 144.188 187.812 144.196 188.212C144.196 188.572 144.096 188.896 143.896 189.184C143.696 189.472 143.412 189.7 143.044 189.868C142.684 190.028 142.268 190.108 141.796 190.108ZM152.128 183.316C152.696 183.316 153.192 183.44 153.616 183.688C154.048 183.936 154.368 184.248 154.576 184.624V183.424H155.68V190.144C155.68 190.744 155.552 191.276 155.296 191.74C155.04 192.212 154.672 192.58 154.192 192.844C153.72 193.108 153.168 193.24 152.536 193.24C151.672 193.24 150.952 193.036 150.376 192.628C149.8 192.22 149.46 191.664 149.356 190.96H150.436C150.556 191.36 150.804 191.68 151.18 191.92C151.556 192.168 152.008 192.292 152.536 192.292C153.136 192.292 153.624 192.104 154 191.728C154.384 191.352 154.576 190.824 154.576 190.144V188.764C154.36 189.148 154.04 189.468 153.616 189.724C153.192 189.98 152.696 190.108 152.128 190.108C151.544 190.108 151.012 189.964 150.532 189.676C150.06 189.388 149.688 188.984 149.416 188.464C149.144 187.944 149.008 187.352 149.008 186.688C149.008 186.016 149.144 185.428 149.416 184.924C149.688 184.412 150.06 184.016 150.532 183.736C151.012 183.456 151.544 183.316 152.128 183.316ZM154.576 186.7C154.576 186.204 154.476 185.772 154.276 185.404C154.076 185.036 153.804 184.756 153.46 184.564C153.124 184.364 152.752 184.264 152.344 184.264C151.936 184.264 151.564 184.36 151.228 184.552C150.892 184.744 150.624 185.024 150.424 185.392C150.224 185.76 150.124 186.192 150.124 186.688C150.124 187.192 150.224 187.632 150.424 188.008C150.624 188.376 150.892 188.66 151.228 188.86C151.564 189.052 151.936 189.148 152.344 189.148C152.752 189.148 153.124 189.052 153.46 188.86C153.804 188.66 154.076 188.376 154.276 188.008C154.476 187.632 154.576 187.196 154.576 186.7ZM163.766 186.46C163.766 186.668 163.754 186.888 163.73 187.12H158.474C158.514 187.768 158.734 188.276 159.134 188.644C159.542 189.004 160.034 189.184 160.61 189.184C161.082 189.184 161.474 189.076 161.786 188.86C162.106 188.636 162.33 188.34 162.458 187.972H163.634C163.458 188.604 163.106 189.12 162.578 189.52C162.05 189.912 161.394 190.108 160.61 190.108C159.986 190.108 159.426 189.968 158.93 189.688C158.442 189.408 158.058 189.012 157.778 188.5C157.498 187.98 157.358 187.38 157.358 186.7C157.358 186.02 157.494 185.424 157.766 184.912C158.038 184.4 158.418 184.008 158.906 183.736C159.402 183.456 159.97 183.316 160.61 183.316C161.234 183.316 161.786 183.452 162.266 183.724C162.746 183.996 163.114 184.372 163.37 184.852C163.634 185.324 163.766 185.86 163.766 186.46ZM162.638 186.232C162.638 185.816 162.546 185.46 162.362 185.164C162.178 184.86 161.926 184.632 161.606 184.48C161.294 184.32 160.946 184.24 160.562 184.24C160.01 184.24 159.538 184.416 159.146 184.768C158.762 185.12 158.542 185.608 158.486 186.232H162.638ZM168.651 183.304C169.451 183.304 170.099 183.548 170.595 184.036C171.091 184.516 171.339 185.212 171.339 186.124V190H170.259V186.28C170.259 185.624 170.095 185.124 169.767 184.78C169.439 184.428 168.991 184.252 168.423 184.252C167.847 184.252 167.387 184.432 167.043 184.792C166.707 185.152 166.539 185.676 166.539 186.364V190H165.447V183.424H166.539V184.36C166.755 184.024 167.047 183.764 167.415 183.58C167.791 183.396 168.203 183.304 168.651 183.304ZM179.363 186.46C179.363 186.668 179.351 186.888 179.327 187.12H174.071C174.111 187.768 174.331 188.276 174.731 188.644C175.139 189.004 175.631 189.184 176.207 189.184C176.679 189.184 177.071 189.076 177.383 188.86C177.703 188.636 177.927 188.34 178.055 187.972H179.231C179.055 188.604 178.703 189.12 178.175 189.52C177.647 189.912 176.991 190.108 176.207 190.108C175.583 190.108 175.023 189.968 174.527 189.688C174.039 189.408 173.655 189.012 173.375 188.5C173.095 187.98 172.955 187.38 172.955 186.7C172.955 186.02 173.091 185.424 173.363 184.912C173.635 184.4 174.015 184.008 174.503 183.736C174.999 183.456 175.567 183.316 176.207 183.316C176.831 183.316 177.383 183.452 177.863 183.724C178.343 183.996 178.711 184.372 178.967 184.852C179.231 185.324 179.363 185.86 179.363 186.46ZM178.235 186.232C178.235 185.816 178.143 185.46 177.959 185.164C177.775 184.86 177.523 184.632 177.203 184.48C176.891 184.32 176.543 184.24 176.159 184.24C175.607 184.24 175.135 184.416 174.743 184.768C174.359 185.12 174.139 185.608 174.083 186.232H178.235ZM182.136 184.492C182.328 184.116 182.6 183.824 182.952 183.616C183.312 183.408 183.748 183.304 184.26 183.304V184.432H183.972C182.748 184.432 182.136 185.096 182.136 186.424V190H181.044V183.424H182.136V184.492ZM185.353 186.688C185.353 186.016 185.489 185.428 185.761 184.924C186.033 184.412 186.405 184.016 186.877 183.736C187.357 183.456 187.889 183.316 188.473 183.316C189.049 183.316 189.549 183.44 189.973 183.688C190.397 183.936 190.713 184.248 190.921 184.624V183.424H192.025V190H190.921V188.776C190.705 189.16 190.381 189.48 189.949 189.736C189.525 189.984 189.029 190.108 188.461 190.108C187.877 190.108 187.349 189.964 186.877 189.676C186.405 189.388 186.033 188.984 185.761 188.464C185.489 187.944 185.353 187.352 185.353 186.688ZM190.921 186.7C190.921 186.204 190.821 185.772 190.621 185.404C190.421 185.036 190.149 184.756 189.805 184.564C189.469 184.364 189.097 184.264 188.689 184.264C188.281 184.264 187.909 184.36 187.573 184.552C187.237 184.744 186.969 185.024 186.769 185.392C186.569 185.76 186.469 186.192 186.469 186.688C186.469 187.192 186.569 187.632 186.769 188.008C186.969 188.376 187.237 188.66 187.573 188.86C187.909 189.052 188.281 189.148 188.689 189.148C189.097 189.148 189.469 189.052 189.805 188.86C190.149 188.66 190.421 188.376 190.621 188.008C190.821 187.632 190.921 187.196 190.921 186.7ZM195.442 184.324V188.2C195.442 188.52 195.51 188.748 195.646 188.884C195.782 189.012 196.018 189.076 196.354 189.076H197.158V190H196.174C195.566 190 195.11 189.86 194.806 189.58C194.502 189.3 194.35 188.84 194.35 188.2V184.324H193.498V183.424H194.35V181.768H195.442V183.424H197.158V184.324H195.442ZM204.721 186.46C204.721 186.668 204.709 186.888 204.685 187.12H199.429C199.469 187.768 199.689 188.276 200.089 188.644C200.497 189.004 200.989 189.184 201.565 189.184C202.037 189.184 202.429 189.076 202.741 188.86C203.061 188.636 203.285 188.34 203.413 187.972H204.589C204.413 188.604 204.061 189.12 203.533 189.52C203.005 189.912 202.349 190.108 201.565 190.108C200.941 190.108 200.381 189.968 199.885 189.688C199.397 189.408 199.013 189.012 198.733 188.5C198.453 187.98 198.313 187.38 198.313 186.7C198.313 186.02 198.449 185.424 198.721 184.912C198.993 184.4 199.373 184.008 199.861 183.736C200.357 183.456 200.925 183.316 201.565 183.316C202.189 183.316 202.741 183.452 203.221 183.724C203.701 183.996 204.069 184.372 204.325 184.852C204.589 185.324 204.721 185.86 204.721 186.46ZM203.593 186.232C203.593 185.816 203.501 185.46 203.317 185.164C203.133 184.86 202.881 184.632 202.561 184.48C202.249 184.32 201.901 184.24 201.517 184.24C200.965 184.24 200.493 184.416 200.101 184.768C199.717 185.12 199.497 185.608 199.441 186.232H203.593ZM205.995 186.688C205.995 186.016 206.131 185.428 206.403 184.924C206.675 184.412 207.047 184.016 207.519 183.736C207.999 183.456 208.535 183.316 209.127 183.316C209.639 183.316 210.115 183.436 210.555 183.676C210.995 183.908 211.331 184.216 211.563 184.6V181.12H212.667V190H211.563V188.764C211.347 189.156 211.027 189.48 210.603 189.736C210.179 189.984 209.683 190.108 209.115 190.108C208.531 190.108 207.999 189.964 207.519 189.676C207.047 189.388 206.675 188.984 206.403 188.464C206.131 187.944 205.995 187.352 205.995 186.688ZM211.563 186.7C211.563 186.204 211.463 185.772 211.263 185.404C211.063 185.036 210.791 184.756 210.447 184.564C210.111 184.364 209.739 184.264 209.331 184.264C208.923 184.264 208.551 184.36 208.215 184.552C207.879 184.744 207.611 185.024 207.411 185.392C207.211 185.76 207.111 186.192 207.111 186.688C207.111 187.192 207.211 187.632 207.411 188.008C207.611 188.376 207.879 188.66 208.215 188.86C208.551 189.052 208.923 189.148 209.331 189.148C209.739 189.148 210.111 189.052 210.447 188.86C210.791 188.66 211.063 188.376 211.263 188.008C211.463 187.632 211.563 187.196 211.563 186.7ZM219.283 184.648C219.507 184.256 219.835 183.936 220.267 183.688C220.699 183.44 221.191 183.316 221.743 183.316C222.335 183.316 222.867 183.456 223.339 183.736C223.811 184.016 224.183 184.412 224.455 184.924C224.727 185.428 224.863 186.016 224.863 186.688C224.863 187.352 224.727 187.944 224.455 188.464C224.183 188.984 223.807 189.388 223.327 189.676C222.855 189.964 222.327 190.108 221.743 190.108C221.175 190.108 220.675 189.984 220.243 189.736C219.819 189.488 219.499 189.172 219.283 188.788V190H218.191V181.12H219.283V184.648ZM223.747 186.688C223.747 186.192 223.647 185.76 223.447 185.392C223.247 185.024 222.975 184.744 222.631 184.552C222.295 184.36 221.923 184.264 221.515 184.264C221.115 184.264 220.743 184.364 220.399 184.564C220.063 184.756 219.791 185.04 219.583 185.416C219.383 185.784 219.283 186.212 219.283 186.7C219.283 187.196 219.383 187.632 219.583 188.008C219.791 188.376 220.063 188.66 220.399 188.86C220.743 189.052 221.115 189.148 221.515 189.148C221.923 189.148 222.295 189.052 222.631 188.86C222.975 188.66 223.247 188.376 223.447 188.008C223.647 187.632 223.747 187.192 223.747 186.688ZM226.133 186.688C226.133 186.016 226.269 185.428 226.541 184.924C226.813 184.412 227.185 184.016 227.657 183.736C228.137 183.456 228.669 183.316 229.253 183.316C229.829 183.316 230.329 183.44 230.753 183.688C231.177 183.936 231.493 184.248 231.701 184.624V183.424H232.805V190H231.701V188.776C231.485 189.16 231.161 189.48 230.729 189.736C230.305 189.984 229.809 190.108 229.241 190.108C228.657 190.108 228.129 189.964 227.657 189.676C227.185 189.388 226.813 188.984 226.541 188.464C226.269 187.944 226.133 187.352 226.133 186.688ZM231.701 186.7C231.701 186.204 231.601 185.772 231.401 185.404C231.201 185.036 230.929 184.756 230.585 184.564C230.249 184.364 229.877 184.264 229.469 184.264C229.061 184.264 228.689 184.36 228.353 184.552C228.017 184.744 227.749 185.024 227.549 185.392C227.349 185.76 227.249 186.192 227.249 186.688C227.249 187.192 227.349 187.632 227.549 188.008C227.749 188.376 228.017 188.66 228.353 188.86C228.689 189.052 229.061 189.148 229.469 189.148C229.877 189.148 230.249 189.052 230.585 188.86C230.929 188.66 231.201 188.376 231.401 188.008C231.601 187.632 231.701 187.196 231.701 186.7ZM237.218 190.108C236.714 190.108 236.262 190.024 235.862 189.856C235.462 189.68 235.146 189.44 234.914 189.136C234.682 188.824 234.554 188.468 234.53 188.068H235.658C235.69 188.396 235.842 188.664 236.114 188.872C236.394 189.08 236.758 189.184 237.206 189.184C237.622 189.184 237.95 189.092 238.19 188.908C238.43 188.724 238.55 188.492 238.55 188.212C238.55 187.924 238.422 187.712 238.166 187.576C237.91 187.432 237.514 187.292 236.978 187.156C236.49 187.028 236.09 186.9 235.778 186.772C235.474 186.636 235.21 186.44 234.986 186.184C234.77 185.92 234.662 185.576 234.662 185.152C234.662 184.816 234.762 184.508 234.962 184.228C235.162 183.948 235.446 183.728 235.814 183.568C236.182 183.4 236.602 183.316 237.074 183.316C237.802 183.316 238.39 183.5 238.838 183.868C239.286 184.236 239.526 184.74 239.558 185.38H238.466C238.442 185.036 238.302 184.76 238.046 184.552C237.798 184.344 237.462 184.24 237.038 184.24C236.646 184.24 236.334 184.324 236.102 184.492C235.87 184.66 235.754 184.88 235.754 185.152C235.754 185.368 235.822 185.548 235.958 185.692C236.102 185.828 236.278 185.94 236.486 186.028C236.702 186.108 236.998 186.2 237.374 186.304C237.846 186.432 238.23 186.56 238.526 186.688C238.822 186.808 239.074 186.992 239.282 187.24C239.498 187.488 239.61 187.812 239.618 188.212C239.618 188.572 239.518 188.896 239.318 189.184C239.118 189.472 238.834 189.7 238.466 189.868C238.106 190.028 237.69 190.108 237.218 190.108ZM247.4 186.46C247.4 186.668 247.388 186.888 247.364 187.12H242.108C242.148 187.768 242.368 188.276 242.768 188.644C243.176 189.004 243.668 189.184 244.244 189.184C244.716 189.184 245.108 189.076 245.42 188.86C245.74 188.636 245.964 188.34 246.092 187.972H247.268C247.092 188.604 246.74 189.12 246.212 189.52C245.684 189.912 245.028 190.108 244.244 190.108C243.62 190.108 243.06 189.968 242.564 189.688C242.076 189.408 241.692 189.012 241.412 188.5C241.132 187.98 240.992 187.38 240.992 186.7C240.992 186.02 241.128 185.424 241.4 184.912C241.672 184.4 242.052 184.008 242.54 183.736C243.036 183.456 243.604 183.316 244.244 183.316C244.868 183.316 245.42 183.452 245.9 183.724C246.38 183.996 246.748 184.372 247.004 184.852C247.268 185.324 247.4 185.86 247.4 186.46ZM246.272 186.232C246.272 185.816 246.18 185.46 245.996 185.164C245.812 184.86 245.56 184.632 245.24 184.48C244.928 184.32 244.58 184.24 244.196 184.24C243.644 184.24 243.172 184.416 242.78 184.768C242.396 185.12 242.176 185.608 242.12 186.232H246.272ZM248.673 186.688C248.673 186.016 248.809 185.428 249.081 184.924C249.353 184.412 249.725 184.016 250.197 183.736C250.677 183.456 251.213 183.316 251.805 183.316C252.317 183.316 252.793 183.436 253.233 183.676C253.673 183.908 254.009 184.216 254.241 184.6V181.12H255.345V190H254.241V188.764C254.025 189.156 253.705 189.48 253.281 189.736C252.857 189.984 252.361 190.108 251.793 190.108C251.209 190.108 250.677 189.964 250.197 189.676C249.725 189.388 249.353 188.984 249.081 188.464C248.809 187.944 248.673 187.352 248.673 186.688ZM254.241 186.7C254.241 186.204 254.141 185.772 253.941 185.404C253.741 185.036 253.469 184.756 253.125 184.564C252.789 184.364 252.417 184.264 252.009 184.264C251.601 184.264 251.229 184.36 250.893 184.552C250.557 184.744 250.289 185.024 250.089 185.392C249.889 185.76 249.789 186.192 249.789 186.688C249.789 187.192 249.889 187.632 250.089 188.008C250.289 188.376 250.557 188.66 250.893 188.86C251.229 189.052 251.601 189.148 252.009 189.148C252.417 189.148 252.789 189.052 253.125 188.86C253.469 188.66 253.741 188.376 253.941 188.008C254.141 187.632 254.241 187.196 254.241 186.7ZM263.738 190.108C263.122 190.108 262.562 189.968 262.058 189.688C261.562 189.408 261.17 189.012 260.882 188.5C260.602 187.98 260.462 187.38 260.462 186.7C260.462 186.028 260.606 185.436 260.894 184.924C261.19 184.404 261.59 184.008 262.094 183.736C262.598 183.456 263.162 183.316 263.786 183.316C264.41 183.316 264.974 183.456 265.478 183.736C265.982 184.008 266.378 184.4 266.666 184.912C266.962 185.424 267.11 186.02 267.11 186.7C267.11 187.38 266.958 187.98 266.654 188.5C266.358 189.012 265.954 189.408 265.442 189.688C264.93 189.968 264.362 190.108 263.738 190.108ZM263.738 189.148C264.13 189.148 264.498 189.056 264.842 188.872C265.186 188.688 265.462 188.412 265.67 188.044C265.886 187.676 265.994 187.228 265.994 186.7C265.994 186.172 265.89 185.724 265.682 185.356C265.474 184.988 265.202 184.716 264.866 184.54C264.53 184.356 264.166 184.264 263.774 184.264C263.374 184.264 263.006 184.356 262.67 184.54C262.342 184.716 262.078 184.988 261.878 185.356C261.678 185.724 261.578 186.172 261.578 186.7C261.578 187.236 261.674 187.688 261.866 188.056C262.066 188.424 262.33 188.7 262.658 188.884C262.986 189.06 263.346 189.148 263.738 189.148ZM271.989 183.304C272.789 183.304 273.437 183.548 273.933 184.036C274.429 184.516 274.677 185.212 274.677 186.124V190H273.597V186.28C273.597 185.624 273.433 185.124 273.105 184.78C272.777 184.428 272.329 184.252 271.761 184.252C271.185 184.252 270.725 184.432 270.381 184.792C270.045 185.152 269.877 185.676 269.877 186.364V190H268.785V183.424H269.877V184.36C270.093 184.024 270.385 183.764 270.753 183.58C271.129 183.396 271.541 183.304 271.989 183.304ZM285.804 183.424L281.844 193.096H280.716L282.012 189.928L279.36 183.424H280.572L282.636 188.752L284.676 183.424H285.804ZM290.01 190.108C289.394 190.108 288.834 189.968 288.33 189.688C287.834 189.408 287.442 189.012 287.154 188.5C286.874 187.98 286.734 187.38 286.734 186.7C286.734 186.028 286.878 185.436 287.166 184.924C287.462 184.404 287.862 184.008 288.366 183.736C288.87 183.456 289.434 183.316 290.058 183.316C290.682 183.316 291.246 183.456 291.75 183.736C292.254 184.008 292.65 184.4 292.938 184.912C293.234 185.424 293.382 186.02 293.382 186.7C293.382 187.38 293.23 187.98 292.926 188.5C292.63 189.012 292.226 189.408 291.714 189.688C291.202 189.968 290.634 190.108 290.01 190.108ZM290.01 189.148C290.402 189.148 290.77 189.056 291.114 188.872C291.458 188.688 291.734 188.412 291.942 188.044C292.158 187.676 292.266 187.228 292.266 186.7C292.266 186.172 292.162 185.724 291.954 185.356C291.746 184.988 291.474 184.716 291.138 184.54C290.802 184.356 290.438 184.264 290.046 184.264C289.646 184.264 289.278 184.356 288.942 184.54C288.614 184.716 288.35 184.988 288.15 185.356C287.95 185.724 287.85 186.172 287.85 186.7C287.85 187.236 287.946 187.688 288.138 188.056C288.338 188.424 288.602 188.7 288.93 188.884C289.258 189.06 289.618 189.148 290.01 189.148ZM300.89 183.424V190H299.798V189.028C299.59 189.364 299.298 189.628 298.922 189.82C298.554 190.004 298.146 190.096 297.698 190.096C297.186 190.096 296.726 189.992 296.318 189.784C295.91 189.568 295.586 189.248 295.346 188.824C295.114 188.4 294.998 187.884 294.998 187.276V183.424H296.078V187.132C296.078 187.78 296.242 188.28 296.57 188.632C296.898 188.976 297.346 189.148 297.914 189.148C298.498 189.148 298.958 188.968 299.294 188.608C299.63 188.248 299.798 187.724 299.798 187.036V183.424H300.89ZM304.066 184.492C304.258 184.116 304.53 183.824 304.882 183.616C305.242 183.408 305.678 183.304 306.19 183.304V184.432H305.902C304.678 184.432 304.066 185.096 304.066 186.424V190H302.974V183.424H304.066V184.492ZM312.221 184.636C312.437 184.26 312.757 183.948 313.181 183.7C313.613 183.444 314.113 183.316 314.681 183.316C315.265 183.316 315.793 183.456 316.265 183.736C316.745 184.016 317.121 184.412 317.393 184.924C317.665 185.428 317.801 186.016 317.801 186.688C317.801 187.352 317.665 187.944 317.393 188.464C317.121 188.984 316.745 189.388 316.265 189.676C315.793 189.964 315.265 190.108 314.681 190.108C314.121 190.108 313.625 189.984 313.193 189.736C312.769 189.48 312.445 189.164 312.221 188.788V193.12H311.129V183.424H312.221V184.636ZM316.685 186.688C316.685 186.192 316.585 185.76 316.385 185.392C316.185 185.024 315.913 184.744 315.569 184.552C315.233 184.36 314.861 184.264 314.453 184.264C314.053 184.264 313.681 184.364 313.337 184.564C313.001 184.756 312.729 185.04 312.521 185.416C312.321 185.784 312.221 186.212 312.221 186.7C312.221 187.196 312.321 187.632 312.521 188.008C312.729 188.376 313.001 188.66 313.337 188.86C313.681 189.052 314.053 189.148 314.453 189.148C314.861 189.148 315.233 189.052 315.569 188.86C315.913 188.66 316.185 188.376 316.385 188.008C316.585 187.632 316.685 187.192 316.685 186.688ZM325.479 186.46C325.479 186.668 325.467 186.888 325.443 187.12H320.187C320.227 187.768 320.447 188.276 320.847 188.644C321.255 189.004 321.747 189.184 322.323 189.184C322.795 189.184 323.187 189.076 323.499 188.86C323.819 188.636 324.043 188.34 324.171 187.972H325.347C325.171 188.604 324.819 189.12 324.291 189.52C323.763 189.912 323.107 190.108 322.323 190.108C321.699 190.108 321.139 189.968 320.643 189.688C320.155 189.408 319.771 189.012 319.491 188.5C319.211 187.98 319.071 187.38 319.071 186.7C319.071 186.02 319.207 185.424 319.479 184.912C319.751 184.4 320.131 184.008 320.619 183.736C321.115 183.456 321.683 183.316 322.323 183.316C322.947 183.316 323.499 183.452 323.979 183.724C324.459 183.996 324.827 184.372 325.083 184.852C325.347 185.324 325.479 185.86 325.479 186.46ZM324.351 186.232C324.351 185.816 324.259 185.46 324.075 185.164C323.891 184.86 323.639 184.632 323.319 184.48C323.007 184.32 322.659 184.24 322.275 184.24C321.723 184.24 321.251 184.416 320.859 184.768C320.475 185.12 320.255 185.608 320.199 186.232H324.351ZM328.252 184.492C328.444 184.116 328.716 183.824 329.068 183.616C329.428 183.408 329.864 183.304 330.376 183.304V184.432H330.088C328.864 184.432 328.252 185.096 328.252 186.424V190H327.16V183.424H328.252V184.492ZM334.205 190.108C333.701 190.108 333.249 190.024 332.849 189.856C332.449 189.68 332.133 189.44 331.901 189.136C331.669 188.824 331.541 188.468 331.517 188.068H332.645C332.677 188.396 332.829 188.664 333.101 188.872C333.381 189.08 333.745 189.184 334.193 189.184C334.609 189.184 334.937 189.092 335.177 188.908C335.417 188.724 335.537 188.492 335.537 188.212C335.537 187.924 335.409 187.712 335.153 187.576C334.897 187.432 334.501 187.292 333.965 187.156C333.477 187.028 333.077 186.9 332.765 186.772C332.461 186.636 332.197 186.44 331.973 186.184C331.757 185.92 331.649 185.576 331.649 185.152C331.649 184.816 331.749 184.508 331.949 184.228C332.149 183.948 332.433 183.728 332.801 183.568C333.169 183.4 333.589 183.316 334.061 183.316C334.789 183.316 335.377 183.5 335.825 183.868C336.273 184.236 336.513 184.74 336.545 185.38H335.453C335.429 185.036 335.289 184.76 335.033 184.552C334.785 184.344 334.449 184.24 334.025 184.24C333.633 184.24 333.321 184.324 333.089 184.492C332.857 184.66 332.741 184.88 332.741 185.152C332.741 185.368 332.809 185.548 332.945 185.692C333.089 185.828 333.265 185.94 333.473 186.028C333.689 186.108 333.985 186.2 334.361 186.304C334.833 186.432 335.217 186.56 335.513 186.688C335.809 186.808 336.061 186.992 336.269 187.24C336.485 187.488 336.597 187.812 336.605 188.212C336.605 188.572 336.505 188.896 336.305 189.184C336.105 189.472 335.821 189.7 335.453 189.868C335.093 190.028 334.677 190.108 334.205 190.108ZM341.254 190.108C340.638 190.108 340.078 189.968 339.574 189.688C339.078 189.408 338.686 189.012 338.398 188.5C338.118 187.98 337.978 187.38 337.978 186.7C337.978 186.028 338.122 185.436 338.41 184.924C338.706 184.404 339.106 184.008 339.61 183.736C340.114 183.456 340.678 183.316 341.302 183.316C341.926 183.316 342.49 183.456 342.994 183.736C343.498 184.008 343.894 184.4 344.182 184.912C344.478 185.424 344.626 186.02 344.626 186.7C344.626 187.38 344.474 187.98 344.17 188.5C343.874 189.012 343.47 189.408 342.958 189.688C342.446 189.968 341.878 190.108 341.254 190.108ZM341.254 189.148C341.646 189.148 342.014 189.056 342.358 188.872C342.702 188.688 342.978 188.412 343.186 188.044C343.402 187.676 343.51 187.228 343.51 186.7C343.51 186.172 343.406 185.724 343.198 185.356C342.99 184.988 342.718 184.716 342.382 184.54C342.046 184.356 341.682 184.264 341.29 184.264C340.89 184.264 340.522 184.356 340.186 184.54C339.858 184.716 339.594 184.988 339.394 185.356C339.194 185.724 339.094 186.172 339.094 186.7C339.094 187.236 339.19 187.688 339.382 188.056C339.582 188.424 339.846 188.7 340.174 188.884C340.502 189.06 340.862 189.148 341.254 189.148ZM349.506 183.304C350.306 183.304 350.954 183.548 351.45 184.036C351.946 184.516 352.194 185.212 352.194 186.124V190H351.114V186.28C351.114 185.624 350.95 185.124 350.622 184.78C350.294 184.428 349.846 184.252 349.278 184.252C348.702 184.252 348.242 184.432 347.898 184.792C347.562 185.152 347.394 185.676 347.394 186.364V190H346.302V183.424H347.394V184.36C347.61 184.024 347.902 183.764 348.27 183.58C348.646 183.396 349.058 183.304 349.506 183.304ZM353.81 186.688C353.81 186.016 353.946 185.428 354.218 184.924C354.49 184.412 354.862 184.016 355.334 183.736C355.814 183.456 356.346 183.316 356.93 183.316C357.506 183.316 358.006 183.44 358.43 183.688C358.854 183.936 359.17 184.248 359.378 184.624V183.424H360.482V190H359.378V188.776C359.162 189.16 358.838 189.48 358.406 189.736C357.982 189.984 357.486 190.108 356.918 190.108C356.334 190.108 355.806 189.964 355.334 189.676C354.862 189.388 354.49 188.984 354.218 188.464C353.946 187.944 353.81 187.352 353.81 186.688ZM359.378 186.7C359.378 186.204 359.278 185.772 359.078 185.404C358.878 185.036 358.606 184.756 358.262 184.564C357.926 184.364 357.554 184.264 357.146 184.264C356.738 184.264 356.366 184.36 356.03 184.552C355.694 184.744 355.426 185.024 355.226 185.392C355.026 185.76 354.926 186.192 354.926 186.688C354.926 187.192 355.026 187.632 355.226 188.008C355.426 188.376 355.694 188.66 356.03 188.86C356.366 189.052 356.738 189.148 357.146 189.148C357.554 189.148 357.926 189.052 358.262 188.86C358.606 188.66 358.878 188.376 359.078 188.008C359.278 187.632 359.378 187.196 359.378 186.7ZM363.659 181.12V190H362.567V181.12H363.659ZM370.292 184.636C370.508 184.26 370.828 183.948 371.252 183.7C371.684 183.444 372.184 183.316 372.752 183.316C373.336 183.316 373.864 183.456 374.336 183.736C374.816 184.016 375.192 184.412 375.464 184.924C375.736 185.428 375.872 186.016 375.872 186.688C375.872 187.352 375.736 187.944 375.464 188.464C375.192 188.984 374.816 189.388 374.336 189.676C373.864 189.964 373.336 190.108 372.752 190.108C372.192 190.108 371.696 189.984 371.264 189.736C370.84 189.48 370.516 189.164 370.292 188.788V193.12H369.2V183.424H370.292V184.636ZM374.756 186.688C374.756 186.192 374.656 185.76 374.456 185.392C374.256 185.024 373.984 184.744 373.64 184.552C373.304 184.36 372.932 184.264 372.524 184.264C372.124 184.264 371.752 184.364 371.408 184.564C371.072 184.756 370.8 185.04 370.592 185.416C370.392 185.784 370.292 186.212 370.292 186.7C370.292 187.196 370.392 187.632 370.592 188.008C370.8 188.376 371.072 188.66 371.408 188.86C371.752 189.052 372.124 189.148 372.524 189.148C372.932 189.148 373.304 189.052 373.64 188.86C373.984 188.66 374.256 188.376 374.456 188.008C374.656 187.632 374.756 187.192 374.756 186.688ZM378.641 184.492C378.833 184.116 379.105 183.824 379.457 183.616C379.817 183.408 380.253 183.304 380.765 183.304V184.432H380.477C379.253 184.432 378.641 185.096 378.641 186.424V190H377.549V183.424H378.641V184.492ZM388.266 186.46C388.266 186.668 388.254 186.888 388.23 187.12H382.974C383.014 187.768 383.234 188.276 383.634 188.644C384.042 189.004 384.534 189.184 385.11 189.184C385.582 189.184 385.974 189.076 386.286 188.86C386.606 188.636 386.83 188.34 386.958 187.972H388.134C387.958 188.604 387.606 189.12 387.078 189.52C386.55 189.912 385.894 190.108 385.11 190.108C384.486 190.108 383.926 189.968 383.43 189.688C382.942 189.408 382.558 189.012 382.278 188.5C381.998 187.98 381.858 187.38 381.858 186.7C381.858 186.02 381.994 185.424 382.266 184.912C382.538 184.4 382.918 184.008 383.406 183.736C383.902 183.456 384.47 183.316 385.11 183.316C385.734 183.316 386.286 183.452 386.766 183.724C387.246 183.996 387.614 184.372 387.87 184.852C388.134 185.324 388.266 185.86 388.266 186.46ZM387.138 186.232C387.138 185.816 387.046 185.46 386.862 185.164C386.678 184.86 386.426 184.632 386.106 184.48C385.794 184.32 385.446 184.24 385.062 184.24C384.51 184.24 384.038 184.416 383.646 184.768C383.262 185.12 383.042 185.608 382.986 186.232H387.138ZM392.623 184.324H391.243V190H390.151V184.324H389.299V183.424H390.151V182.956C390.151 182.22 390.339 181.684 390.715 181.348C391.099 181.004 391.711 180.832 392.551 180.832V181.744C392.071 181.744 391.731 181.84 391.531 182.032C391.339 182.216 391.243 182.524 391.243 182.956V183.424H392.623V184.324ZM400.136 186.46C400.136 186.668 400.124 186.888 400.1 187.12H394.844C394.884 187.768 395.104 188.276 395.504 188.644C395.912 189.004 396.404 189.184 396.98 189.184C397.452 189.184 397.844 189.076 398.156 188.86C398.476 188.636 398.7 188.34 398.828 187.972H400.004C399.828 188.604 399.476 189.12 398.948 189.52C398.42 189.912 397.764 190.108 396.98 190.108C396.356 190.108 395.796 189.968 395.3 189.688C394.812 189.408 394.428 189.012 394.148 188.5C393.868 187.98 393.728 187.38 393.728 186.7C393.728 186.02 393.864 185.424 394.136 184.912C394.408 184.4 394.788 184.008 395.276 183.736C395.772 183.456 396.34 183.316 396.98 183.316C397.604 183.316 398.156 183.452 398.636 183.724C399.116 183.996 399.484 184.372 399.74 184.852C400.004 185.324 400.136 185.86 400.136 186.46ZM399.008 186.232C399.008 185.816 398.916 185.46 398.732 185.164C398.548 184.86 398.296 184.632 397.976 184.48C397.664 184.32 397.316 184.24 396.932 184.24C396.38 184.24 395.908 184.416 395.516 184.768C395.132 185.12 394.912 185.608 394.856 186.232H399.008ZM402.91 184.492C403.102 184.116 403.374 183.824 403.726 183.616C404.086 183.408 404.522 183.304 405.034 183.304V184.432H404.746C403.522 184.432 402.91 185.096 402.91 186.424V190H401.818V183.424H402.91V184.492ZM412.534 186.46C412.534 186.668 412.522 186.888 412.498 187.12H407.242C407.282 187.768 407.502 188.276 407.902 188.644C408.31 189.004 408.802 189.184 409.378 189.184C409.85 189.184 410.242 189.076 410.554 188.86C410.874 188.636 411.098 188.34 411.226 187.972H412.402C412.226 188.604 411.874 189.12 411.346 189.52C410.818 189.912 410.162 190.108 409.378 190.108C408.754 190.108 408.194 189.968 407.698 189.688C407.21 189.408 406.826 189.012 406.546 188.5C406.266 187.98 406.126 187.38 406.126 186.7C406.126 186.02 406.262 185.424 406.534 184.912C406.806 184.4 407.186 184.008 407.674 183.736C408.17 183.456 408.738 183.316 409.378 183.316C410.002 183.316 410.554 183.452 411.034 183.724C411.514 183.996 411.882 184.372 412.138 184.852C412.402 185.324 412.534 185.86 412.534 186.46ZM411.406 186.232C411.406 185.816 411.314 185.46 411.13 185.164C410.946 184.86 410.694 184.632 410.374 184.48C410.062 184.32 409.714 184.24 409.33 184.24C408.778 184.24 408.306 184.416 407.914 184.768C407.53 185.12 407.31 185.608 407.254 186.232H411.406ZM417.42 183.304C418.22 183.304 418.868 183.548 419.364 184.036C419.86 184.516 420.108 185.212 420.108 186.124V190H419.028V186.28C419.028 185.624 418.864 185.124 418.536 184.78C418.208 184.428 417.76 184.252 417.192 184.252C416.616 184.252 416.156 184.432 415.812 184.792C415.476 185.152 415.308 185.676 415.308 186.364V190H414.216V183.424H415.308V184.36C415.524 184.024 415.816 183.764 416.184 183.58C416.56 183.396 416.972 183.304 417.42 183.304ZM421.723 186.7C421.723 186.02 421.859 185.428 422.131 184.924C422.403 184.412 422.779 184.016 423.259 183.736C423.747 183.456 424.303 183.316 424.927 183.316C425.735 183.316 426.399 183.512 426.919 183.904C427.447 184.296 427.795 184.84 427.963 185.536H426.787C426.675 185.136 426.455 184.82 426.127 184.588C425.807 184.356 425.407 184.24 424.927 184.24C424.303 184.24 423.799 184.456 423.415 184.888C423.031 185.312 422.839 185.916 422.839 186.7C422.839 187.492 423.031 188.104 423.415 188.536C423.799 188.968 424.303 189.184 424.927 189.184C425.407 189.184 425.807 189.072 426.127 188.848C426.447 188.624 426.667 188.304 426.787 187.888H427.963C427.787 188.56 427.435 189.1 426.907 189.508C426.379 189.908 425.719 190.108 424.927 190.108C424.303 190.108 423.747 189.968 423.259 189.688C422.779 189.408 422.403 189.012 422.131 188.5C421.859 187.988 421.723 187.388 421.723 186.7ZM435.66 186.46C435.66 186.668 435.648 186.888 435.624 187.12H430.368C430.408 187.768 430.628 188.276 431.028 188.644C431.436 189.004 431.928 189.184 432.504 189.184C432.976 189.184 433.368 189.076 433.68 188.86C434 188.636 434.224 188.34 434.352 187.972H435.528C435.352 188.604 435 189.12 434.472 189.52C433.944 189.912 433.288 190.108 432.504 190.108C431.88 190.108 431.32 189.968 430.824 189.688C430.336 189.408 429.952 189.012 429.672 188.5C429.392 187.98 429.252 187.38 429.252 186.7C429.252 186.02 429.388 185.424 429.66 184.912C429.932 184.4 430.312 184.008 430.8 183.736C431.296 183.456 431.864 183.316 432.504 183.316C433.128 183.316 433.68 183.452 434.16 183.724C434.64 183.996 435.008 184.372 435.264 184.852C435.528 185.324 435.66 185.86 435.66 186.46ZM434.532 186.232C434.532 185.816 434.44 185.46 434.256 185.164C434.072 184.86 433.82 184.632 433.5 184.48C433.188 184.32 432.84 184.24 432.456 184.24C431.904 184.24 431.432 184.416 431.04 184.768C430.656 185.12 430.436 185.608 430.38 186.232H434.532ZM439.67 190.108C439.166 190.108 438.714 190.024 438.314 189.856C437.914 189.68 437.598 189.44 437.366 189.136C437.134 188.824 437.006 188.468 436.982 188.068H438.11C438.142 188.396 438.294 188.664 438.566 188.872C438.846 189.08 439.21 189.184 439.658 189.184C440.074 189.184 440.402 189.092 440.642 188.908C440.882 188.724 441.002 188.492 441.002 188.212C441.002 187.924 440.874 187.712 440.618 187.576C440.362 187.432 439.966 187.292 439.43 187.156C438.942 187.028 438.542 186.9 438.23 186.772C437.926 186.636 437.662 186.44 437.438 186.184C437.222 185.92 437.114 185.576 437.114 185.152C437.114 184.816 437.214 184.508 437.414 184.228C437.614 183.948 437.898 183.728 438.266 183.568C438.634 183.4 439.054 183.316 439.526 183.316C440.254 183.316 440.842 183.5 441.29 183.868C441.738 184.236 441.978 184.74 442.01 185.38H440.918C440.894 185.036 440.754 184.76 440.498 184.552C440.25 184.344 439.914 184.24 439.49 184.24C439.098 184.24 438.786 184.324 438.554 184.492C438.322 184.66 438.206 184.88 438.206 185.152C438.206 185.368 438.274 185.548 438.41 185.692C438.554 185.828 438.73 185.94 438.938 186.028C439.154 186.108 439.45 186.2 439.826 186.304C440.298 186.432 440.682 186.56 440.978 186.688C441.274 186.808 441.526 186.992 441.734 187.24C441.95 187.488 442.062 187.812 442.07 188.212C442.07 188.572 441.97 188.896 441.77 189.184C441.57 189.472 441.286 189.7 440.918 189.868C440.558 190.028 440.142 190.108 439.67 190.108ZM444.199 190.072C443.991 190.072 443.815 190 443.671 189.856C443.527 189.712 443.455 189.536 443.455 189.328C443.455 189.12 443.527 188.944 443.671 188.8C443.815 188.656 443.991 188.584 444.199 188.584C444.399 188.584 444.567 188.656 444.703 188.8C444.847 188.944 444.919 189.12 444.919 189.328C444.919 189.536 444.847 189.712 444.703 189.856C444.567 190 444.399 190.072 444.199 190.072Z" fill="#96B2CF"/>
</svg>
