<svg width="275" height="134" viewBox="0 0 275 134" fill="none" xmlns="http://www.w3.org/2000/svg">
<path d="M5.50344 42.48H15.9434V44H3.70344V15.92H5.50344V42.48ZM40.3916 31.68C40.3916 32.64 40.3649 33.36 40.3116 33.84H21.5516C21.6049 35.7867 22.0316 37.4267 22.8316 38.76C23.6316 40.0933 24.6849 41.0933 25.9916 41.76C27.2982 42.4267 28.7249 42.76 30.2716 42.76C32.4049 42.76 34.1916 42.24 35.6316 41.2C37.0716 40.1333 37.9782 38.6933 38.3516 36.88H40.2316C39.8049 39.0933 38.7116 40.8933 36.9516 42.28C35.1916 43.64 32.9649 44.32 30.2716 44.32C28.2449 44.32 26.4316 43.8667 24.8316 42.96C23.2316 42.0533 21.9782 40.76 21.0716 39.08C20.1649 37.3733 19.7116 35.3867 19.7116 33.12C19.7116 30.8533 20.1516 28.88 21.0316 27.2C21.9382 25.52 23.1916 24.24 24.7916 23.36C26.3916 22.4533 28.2182 22 30.2716 22C32.3516 22 34.1516 22.4533 35.6716 23.36C37.2182 24.24 38.3916 25.4267 39.1916 26.92C39.9916 28.3867 40.3916 29.9733 40.3916 31.68ZM38.5916 32.36C38.6716 30.44 38.3249 28.8133 37.5516 27.48C36.8049 26.1467 35.7782 25.16 34.4716 24.52C33.1649 23.8533 31.7516 23.52 30.2316 23.52C28.7116 23.52 27.2982 23.8533 25.9916 24.52C24.7116 25.16 23.6582 26.1467 22.8316 27.48C22.0316 28.8133 21.6049 30.44 21.5516 32.36H38.5916ZM49.3116 23.84V38.2C49.3116 39.8 49.6049 40.9067 50.1916 41.52C50.7782 42.1067 51.8182 42.4 53.3116 42.4H55.7516V44H53.0316C51.1382 44 49.7382 43.56 48.8316 42.68C47.9516 41.7733 47.5116 40.28 47.5116 38.2V23.84H44.2316V22.28H47.5116V16.76H49.3116V22.28H55.7516V23.84H49.3116ZM61.4588 15.92H63.7388L60.6188 24.12H59.2588L61.4588 15.92ZM76.2137 44.32C73.7871 44.32 71.8004 43.7867 70.2537 42.72C68.7337 41.6533 67.8804 40.1333 67.6937 38.16H69.5337C69.6671 39.5733 70.3071 40.6933 71.4537 41.52C72.6271 42.3467 74.2137 42.76 76.2137 42.76C77.8671 42.76 79.1737 42.3467 80.1337 41.52C81.1204 40.6667 81.6137 39.6267 81.6137 38.4C81.6137 37.5467 81.3471 36.8533 80.8137 36.32C80.3071 35.76 79.6671 35.3333 78.8937 35.04C78.1204 34.7467 77.0671 34.4267 75.7337 34.08C74.1337 33.6533 72.8404 33.24 71.8537 32.84C70.8671 32.4133 70.0271 31.7867 69.3337 30.96C68.6404 30.1333 68.2937 29.0267 68.2937 27.64C68.2937 26.6267 68.6004 25.6933 69.2137 24.84C69.8271 23.96 70.6804 23.2667 71.7737 22.76C72.8671 22.2533 74.1071 22 75.4937 22C77.7604 22 79.5871 22.5733 80.9737 23.72C82.3871 24.84 83.1471 26.4 83.2537 28.4H81.4537C81.3737 26.96 80.8137 25.7867 79.7737 24.88C78.7337 23.9733 77.2937 23.52 75.4537 23.52C73.9071 23.52 72.6271 23.92 71.6137 24.72C70.6004 25.52 70.0937 26.4933 70.0937 27.64C70.0937 28.6533 70.3737 29.48 70.9337 30.12C71.5204 30.7333 72.2271 31.2133 73.0537 31.56C73.9071 31.88 75.0271 32.2267 76.4137 32.6C77.9337 33 79.1471 33.4 80.0537 33.8C80.9871 34.1733 81.7737 34.7333 82.4137 35.48C83.0537 36.2 83.3737 37.1733 83.3737 38.4C83.3737 39.52 83.0671 40.5333 82.4537 41.44C81.8404 42.3467 80.9871 43.0533 79.8937 43.56C78.8004 44.0667 77.5737 44.32 76.2137 44.32Z" fill="#003362"/>
<path d="M20.5862 134C16.7857 134 13.337 133.071 10.2403 131.213C7.14358 129.356 4.64509 126.879 2.74482 123.782C0.914941 120.617 0 117.108 0 113.255V80.5384C0 76.8229 0.914941 73.417 2.74482 70.3208C4.64509 67.1557 7.14358 64.6443 10.2403 62.7866C13.4074 60.9289 16.856 60 20.5862 60C24.4571 60 27.9409 60.9289 31.0376 62.7866C34.2047 64.5755 36.7032 67.0181 38.5331 70.1144C40.363 73.2106 41.2779 76.6853 41.2779 80.5384V85.2859C41.2779 85.5611 41.102 85.6987 40.7501 85.6987H28.9262C28.6447 85.6987 28.504 85.5611 28.504 85.2859V81.364C28.504 78.7494 27.7298 76.5821 26.1814 74.8619C24.7034 73.1418 22.8384 72.2817 20.5862 72.2817C18.5452 72.2817 16.7153 73.1074 15.0965 74.7587C13.5482 76.41 12.774 78.3366 12.774 80.5384V113.255C12.774 115.526 13.5482 117.487 15.0965 119.138C16.6449 120.721 18.4748 121.512 20.5862 121.512C22.8384 121.512 24.7034 120.721 26.1814 119.138C27.7298 117.556 28.504 115.595 28.504 113.255V108.198H21.114C20.7621 108.198 20.5862 108.026 20.5862 107.682V96.1227C20.5862 95.7787 20.7621 95.6067 21.114 95.6067H40.8557C41.1372 95.6067 41.2779 95.7787 41.2779 96.1227V113.255C41.2779 117.108 40.3278 120.617 38.4275 123.782C36.5977 126.879 34.1344 129.356 31.0376 131.213C27.9409 133.071 24.4571 134 20.5862 134Z" fill="#003362"/>
<path d="M68.3245 134C64.524 134 61.0402 133.071 57.8731 131.213C54.7764 129.287 52.2779 126.775 50.3776 123.679C48.4773 120.514 47.5272 117.04 47.5272 113.255L47.6328 80.5384C47.6328 76.7541 48.5477 73.3138 50.3776 70.2176C52.2779 67.1213 54.8115 64.6443 57.9786 62.7866C61.1458 60.9289 64.5944 60 68.3245 60C72.1251 60 75.5737 60.9289 78.6704 62.7866C81.7671 64.6443 84.2304 67.1213 86.0603 70.2176C87.9606 73.3138 88.9107 76.7541 88.9107 80.5384L89.0163 113.255C89.0163 117.04 88.0661 120.514 86.1659 123.679C84.336 126.775 81.8375 129.287 78.6704 131.213C75.5737 133.071 72.1251 134 68.3245 134ZM68.3245 121.512C70.4359 121.512 72.2658 120.686 73.8142 119.035C75.4329 117.315 76.2423 115.388 76.2423 113.255L76.1367 80.5384C76.1367 78.2678 75.3977 76.3412 73.9197 74.7587C72.4418 73.1762 70.5767 72.3849 68.3245 72.3849C66.1427 72.3849 64.2777 73.1762 62.7293 74.7587C61.1809 76.2724 60.4068 78.199 60.4068 80.5384V113.255C60.4068 115.526 61.1809 117.487 62.7293 119.138C64.2777 120.721 66.1427 121.512 68.3245 121.512Z" fill="#003362"/>
<path d="M106.26 132.968C105.978 132.968 105.837 132.796 105.837 132.452V73.6234H92.1133C91.7614 73.6234 91.5854 73.4514 91.5854 73.1074L91.691 61.5481C91.691 61.2729 91.8318 61.1353 92.1133 61.1353H132.23C132.582 61.1353 132.758 61.2729 132.758 61.5481V73.1074C132.758 73.4514 132.617 73.6234 132.336 73.6234H118.506L118.611 132.452C118.611 132.796 118.471 132.968 118.189 132.968H106.26Z" fill="#003362"/>
<path d="M138.5 132.968C138.148 132.968 137.972 132.796 137.972 132.452L138.078 61.5481C138.078 61.2729 138.218 61.1353 138.5 61.1353H150.324C150.605 61.1353 150.746 61.2729 150.746 61.5481L150.852 132.452C150.852 132.796 150.711 132.968 150.429 132.968H138.5Z" fill="#FFB500"/>
<path d="M181.779 134C177.275 134 173.299 133.071 169.85 131.213C166.401 129.287 163.692 126.775 161.721 123.679C159.821 120.514 158.871 117.04 158.871 113.255L158.976 80.5384C158.976 76.7541 159.926 73.3138 161.827 70.2176C163.797 67.1213 166.507 64.6443 169.956 62.7866C173.404 60.9289 177.346 60 181.779 60C186.284 60 190.225 60.9289 193.603 62.7866C196.982 64.6443 199.621 67.1213 201.521 70.2176C203.492 73.3138 204.477 76.7541 204.477 80.5384L204.583 113.255C204.583 117.04 203.597 120.514 201.627 123.679C199.726 126.775 197.052 129.287 193.603 131.213C190.225 133.071 186.284 134 181.779 134ZM191.809 113.255L191.703 80.5384C191.703 78.1302 190.788 76.1692 188.958 74.6555C187.128 73.1418 184.735 72.3849 181.779 72.3849C178.753 72.3849 176.325 73.1418 174.495 74.6555C172.665 76.1692 171.75 78.1302 171.75 80.5384V113.255C171.75 115.801 172.665 117.831 174.495 119.344C176.325 120.789 178.753 121.512 181.779 121.512C184.735 121.512 187.128 120.789 188.958 119.344C190.859 117.831 191.809 115.801 191.809 113.255Z" fill="#FFB500"/>
<path d="M213.141 132.968C212.789 132.968 212.613 132.796 212.613 132.452L212.719 61.5481C212.719 61.2729 212.86 61.1353 213.141 61.1353H224.965C225.247 61.1353 225.387 61.2729 225.387 61.5481L225.493 132.452C225.493 132.796 225.352 132.968 225.071 132.968H213.141Z" fill="#003362"/>
<path d="M235.729 132.968C235.166 132.968 234.885 132.727 234.885 132.245L234.779 61.9609C234.779 61.4105 235.061 61.1353 235.624 61.1353H245.125L262.966 101.799L262.438 61.9609C262.438 61.4105 262.755 61.1353 263.389 61.1353H273.84C274.262 61.1353 274.473 61.4105 274.473 61.9609L274.579 132.349C274.579 132.762 274.403 132.968 274.051 132.968H264.761L246.497 94.9874L247.236 132.142C247.236 132.693 246.92 132.968 246.286 132.968H235.729Z" fill="#003362"/>
</svg>
