<svg width="258" height="153" viewBox="0 0 258 153" fill="none" xmlns="http://www.w3.org/2000/svg">
<path d="M1.84375 110.625L4.79688 116.336L7.75781 110.625H9.46875L5.54688 117.75V122H4.03906V117.75L0.117188 110.625H1.84375ZM9.8125 117.867V117.688C9.8125 117.078 9.90104 116.513 10.0781 115.992C10.2552 115.466 10.5104 115.01 10.8438 114.625C11.1771 114.234 11.5807 113.932 12.0547 113.719C12.5286 113.5 13.0599 113.391 13.6484 113.391C14.2422 113.391 14.776 113.5 15.25 113.719C15.7292 113.932 16.1354 114.234 16.4688 114.625C16.8073 115.01 17.0651 115.466 17.2422 115.992C17.4193 116.513 17.5078 117.078 17.5078 117.688V117.867C17.5078 118.477 17.4193 119.042 17.2422 119.562C17.0651 120.083 16.8073 120.539 16.4688 120.93C16.1354 121.315 15.7318 121.617 15.2578 121.836C14.7891 122.049 14.2578 122.156 13.6641 122.156C13.0703 122.156 12.5365 122.049 12.0625 121.836C11.5885 121.617 11.1823 121.315 10.8438 120.93C10.5104 120.539 10.2552 120.083 10.0781 119.562C9.90104 119.042 9.8125 118.477 9.8125 117.867ZM11.2578 117.688V117.867C11.2578 118.289 11.3073 118.688 11.4062 119.062C11.5052 119.432 11.6536 119.76 11.8516 120.047C12.0547 120.333 12.3073 120.56 12.6094 120.727C12.9115 120.888 13.263 120.969 13.6641 120.969C14.0599 120.969 14.4062 120.888 14.7031 120.727C15.0052 120.56 15.2552 120.333 15.4531 120.047C15.651 119.76 15.7995 119.432 15.8984 119.062C16.0026 118.688 16.0547 118.289 16.0547 117.867V117.688C16.0547 117.271 16.0026 116.878 15.8984 116.508C15.7995 116.133 15.6484 115.802 15.4453 115.516C15.2474 115.224 14.9974 114.995 14.6953 114.828C14.3984 114.661 14.0495 114.578 13.6484 114.578C13.2526 114.578 12.9036 114.661 12.6016 114.828C12.3047 114.995 12.0547 115.224 11.8516 115.516C11.6536 115.802 11.5052 116.133 11.4062 116.508C11.3073 116.878 11.2578 117.271 11.2578 117.688ZM24.4922 120.047V113.547H25.9453V122H24.5625L24.4922 120.047ZM24.7656 118.266L25.3672 118.25C25.3672 118.812 25.3073 119.333 25.1875 119.812C25.0729 120.286 24.8854 120.698 24.625 121.047C24.3646 121.396 24.0234 121.669 23.6016 121.867C23.1797 122.06 22.6667 122.156 22.0625 122.156C21.651 122.156 21.2734 122.096 20.9297 121.977C20.5911 121.857 20.2995 121.672 20.0547 121.422C19.8099 121.172 19.6198 120.846 19.4844 120.445C19.3542 120.044 19.2891 119.562 19.2891 119V113.547H20.7344V119.016C20.7344 119.396 20.776 119.711 20.8594 119.961C20.9479 120.206 21.0651 120.401 21.2109 120.547C21.362 120.688 21.5286 120.786 21.7109 120.844C21.8984 120.901 22.0911 120.93 22.2891 120.93C22.9036 120.93 23.3906 120.812 23.75 120.578C24.1094 120.339 24.3672 120.018 24.5234 119.617C24.6849 119.211 24.7656 118.76 24.7656 118.266ZM29.5938 114.875V122H28.1484V113.547H29.5547L29.5938 114.875ZM32.2344 113.5L32.2266 114.844C32.1068 114.818 31.9922 114.802 31.8828 114.797C31.7786 114.786 31.6589 114.781 31.5234 114.781C31.1901 114.781 30.8958 114.833 30.6406 114.938C30.3854 115.042 30.1693 115.188 29.9922 115.375C29.8151 115.562 29.6745 115.786 29.5703 116.047C29.4714 116.302 29.4062 116.583 29.375 116.891L28.9688 117.125C28.9688 116.615 29.0182 116.135 29.1172 115.688C29.2214 115.24 29.3802 114.844 29.5938 114.5C29.8073 114.151 30.0781 113.88 30.4062 113.688C30.7396 113.49 31.1354 113.391 31.5938 113.391C31.6979 113.391 31.8177 113.404 31.9531 113.43C32.0885 113.451 32.1823 113.474 32.2344 113.5ZM42.0469 112.352L38.8047 122H36.5312L40.7812 110.625H42.2344L42.0469 112.352ZM44.7578 122L41.5 112.352L41.3047 110.625H42.7656L47.0391 122H44.7578ZM44.6094 117.773V119.469H38.5078V117.773H44.6094ZM50.5 110.625V122H48.3516V110.625H50.5ZM60.3125 122.156C59.724 122.156 59.1901 122.057 58.7109 121.859C58.237 121.656 57.8281 121.372 57.4844 121.008C57.1458 120.643 56.8854 120.211 56.7031 119.711C56.5208 119.211 56.4297 118.664 56.4297 118.07V117.742C56.4297 117.055 56.5312 116.443 56.7344 115.906C56.9375 115.365 57.2135 114.906 57.5625 114.531C57.9115 114.156 58.3073 113.872 58.75 113.68C59.1927 113.487 59.651 113.391 60.125 113.391C60.7292 113.391 61.25 113.495 61.6875 113.703C62.1302 113.911 62.4922 114.203 62.7734 114.578C63.0547 114.948 63.263 115.385 63.3984 115.891C63.5339 116.391 63.6016 116.938 63.6016 117.531V118.18H57.2891V117H62.1562V116.891C62.1354 116.516 62.0573 116.151 61.9219 115.797C61.7917 115.443 61.5833 115.151 61.2969 114.922C61.0104 114.693 60.6198 114.578 60.125 114.578C59.7969 114.578 59.4948 114.648 59.2188 114.789C58.9427 114.924 58.7057 115.128 58.5078 115.398C58.3099 115.669 58.1562 116 58.0469 116.391C57.9375 116.781 57.8828 117.232 57.8828 117.742V118.07C57.8828 118.471 57.9375 118.849 58.0469 119.203C58.1615 119.552 58.3255 119.859 58.5391 120.125C58.7578 120.391 59.0208 120.599 59.3281 120.75C59.6406 120.901 59.9948 120.977 60.3906 120.977C60.901 120.977 61.3333 120.872 61.6875 120.664C62.0417 120.456 62.3516 120.177 62.6172 119.828L63.4922 120.523C63.3099 120.799 63.0781 121.062 62.7969 121.312C62.5156 121.562 62.1693 121.766 61.7578 121.922C61.3516 122.078 60.8698 122.156 60.3125 122.156ZM66.7266 115.227V122H65.2734V113.547H66.6484L66.7266 115.227ZM66.4297 117.453L65.7578 117.43C65.763 116.852 65.8385 116.318 65.9844 115.828C66.1302 115.333 66.3464 114.904 66.6328 114.539C66.9193 114.174 67.276 113.893 67.7031 113.695C68.1302 113.492 68.625 113.391 69.1875 113.391C69.5833 113.391 69.9479 113.448 70.2812 113.562C70.6146 113.672 70.9036 113.846 71.1484 114.086C71.3932 114.326 71.5833 114.633 71.7188 115.008C71.8542 115.383 71.9219 115.836 71.9219 116.367V122H70.4766V116.438C70.4766 115.995 70.401 115.641 70.25 115.375C70.1042 115.109 69.8958 114.917 69.625 114.797C69.3542 114.672 69.0365 114.609 68.6719 114.609C68.2448 114.609 67.888 114.685 67.6016 114.836C67.3151 114.987 67.0859 115.195 66.9141 115.461C66.7422 115.727 66.6172 116.031 66.5391 116.375C66.4661 116.714 66.4297 117.073 66.4297 117.453ZM71.9062 116.656L70.9375 116.953C70.9427 116.49 71.0182 116.044 71.1641 115.617C71.3151 115.19 71.5312 114.81 71.8125 114.477C72.099 114.143 72.4505 113.88 72.8672 113.688C73.2839 113.49 73.7604 113.391 74.2969 113.391C74.75 113.391 75.151 113.451 75.5 113.57C75.8542 113.69 76.151 113.875 76.3906 114.125C76.6354 114.37 76.8203 114.685 76.9453 115.07C77.0703 115.456 77.1328 115.914 77.1328 116.445V122H75.6797V116.43C75.6797 115.956 75.6042 115.589 75.4531 115.328C75.3073 115.062 75.099 114.878 74.8281 114.773C74.5625 114.664 74.2448 114.609 73.875 114.609C73.5573 114.609 73.276 114.664 73.0312 114.773C72.7865 114.883 72.5807 115.034 72.4141 115.227C72.2474 115.414 72.1198 115.63 72.0312 115.875C71.9479 116.12 71.9062 116.38 71.9062 116.656ZM80.7656 115.172V125.25H79.3125V113.547H80.6406L80.7656 115.172ZM86.4609 117.703V117.867C86.4609 118.482 86.388 119.052 86.2422 119.578C86.0964 120.099 85.8828 120.552 85.6016 120.938C85.3255 121.323 84.9844 121.622 84.5781 121.836C84.1719 122.049 83.7057 122.156 83.1797 122.156C82.6432 122.156 82.1693 122.068 81.7578 121.891C81.3464 121.714 80.9974 121.456 80.7109 121.117C80.4245 120.779 80.1953 120.372 80.0234 119.898C79.8568 119.424 79.7422 118.891 79.6797 118.297V117.422C79.7422 116.797 79.8594 116.237 80.0312 115.742C80.2031 115.247 80.4297 114.826 80.7109 114.477C80.9974 114.122 81.3438 113.854 81.75 113.672C82.1562 113.484 82.625 113.391 83.1562 113.391C83.6875 113.391 84.1589 113.495 84.5703 113.703C84.9818 113.906 85.3281 114.198 85.6094 114.578C85.8906 114.958 86.1016 115.414 86.2422 115.945C86.388 116.471 86.4609 117.057 86.4609 117.703ZM85.0078 117.867V117.703C85.0078 117.281 84.9635 116.885 84.875 116.516C84.7865 116.141 84.6484 115.812 84.4609 115.531C84.2786 115.245 84.0443 115.021 83.7578 114.859C83.4714 114.693 83.1302 114.609 82.7344 114.609C82.3698 114.609 82.0521 114.672 81.7812 114.797C81.5156 114.922 81.2891 115.091 81.1016 115.305C80.9141 115.513 80.7604 115.753 80.6406 116.023C80.526 116.289 80.4401 116.565 80.3828 116.852V118.875C80.487 119.24 80.6328 119.583 80.8203 119.906C81.0078 120.224 81.2578 120.482 81.5703 120.68C81.8828 120.872 82.276 120.969 82.75 120.969C83.1406 120.969 83.4766 120.888 83.7578 120.727C84.0443 120.56 84.2786 120.333 84.4609 120.047C84.6484 119.76 84.7865 119.432 84.875 119.062C84.9635 118.688 85.0078 118.289 85.0078 117.867ZM87.9219 117.867V117.688C87.9219 117.078 88.0104 116.513 88.1875 115.992C88.3646 115.466 88.6198 115.01 88.9531 114.625C89.2865 114.234 89.6901 113.932 90.1641 113.719C90.638 113.5 91.1693 113.391 91.7578 113.391C92.3516 113.391 92.8854 113.5 93.3594 113.719C93.8385 113.932 94.2448 114.234 94.5781 114.625C94.9167 115.01 95.1745 115.466 95.3516 115.992C95.5286 116.513 95.6172 117.078 95.6172 117.688V117.867C95.6172 118.477 95.5286 119.042 95.3516 119.562C95.1745 120.083 94.9167 120.539 94.5781 120.93C94.2448 121.315 93.8411 121.617 93.3672 121.836C92.8984 122.049 92.3672 122.156 91.7734 122.156C91.1797 122.156 90.6458 122.049 90.1719 121.836C89.6979 121.617 89.2917 121.315 88.9531 120.93C88.6198 120.539 88.3646 120.083 88.1875 119.562C88.0104 119.042 87.9219 118.477 87.9219 117.867ZM89.3672 117.688V117.867C89.3672 118.289 89.4167 118.688 89.5156 119.062C89.6146 119.432 89.763 119.76 89.9609 120.047C90.1641 120.333 90.4167 120.56 90.7188 120.727C91.0208 120.888 91.3724 120.969 91.7734 120.969C92.1693 120.969 92.5156 120.888 92.8125 120.727C93.1146 120.56 93.3646 120.333 93.5625 120.047C93.7604 119.76 93.9089 119.432 94.0078 119.062C94.112 118.688 94.1641 118.289 94.1641 117.867V117.688C94.1641 117.271 94.112 116.878 94.0078 116.508C93.9089 116.133 93.7578 115.802 93.5547 115.516C93.3568 115.224 93.1068 114.995 92.8047 114.828C92.5078 114.661 92.1589 114.578 91.7578 114.578C91.362 114.578 91.013 114.661 90.7109 114.828C90.4141 114.995 90.1641 115.224 89.9609 115.516C89.763 115.802 89.6146 116.133 89.5156 116.508C89.4167 116.878 89.3672 117.271 89.3672 117.688ZM99.5703 120.5L101.742 113.547H102.695L102.508 114.93L100.297 122H99.3672L99.5703 120.5ZM98.1094 113.547L99.9609 120.578L100.094 122H99.1172L96.6641 113.547H98.1094ZM104.773 120.523L106.539 113.547H107.977L105.523 122H104.555L104.773 120.523ZM102.906 113.547L105.031 120.383L105.273 122H104.352L102.078 114.914L101.891 113.547H102.906ZM112.969 122.156C112.38 122.156 111.846 122.057 111.367 121.859C110.893 121.656 110.484 121.372 110.141 121.008C109.802 120.643 109.542 120.211 109.359 119.711C109.177 119.211 109.086 118.664 109.086 118.07V117.742C109.086 117.055 109.188 116.443 109.391 115.906C109.594 115.365 109.87 114.906 110.219 114.531C110.568 114.156 110.964 113.872 111.406 113.68C111.849 113.487 112.307 113.391 112.781 113.391C113.385 113.391 113.906 113.495 114.344 113.703C114.786 113.911 115.148 114.203 115.43 114.578C115.711 114.948 115.919 115.385 116.055 115.891C116.19 116.391 116.258 116.938 116.258 117.531V118.18H109.945V117H114.812V116.891C114.792 116.516 114.714 116.151 114.578 115.797C114.448 115.443 114.24 115.151 113.953 114.922C113.667 114.693 113.276 114.578 112.781 114.578C112.453 114.578 112.151 114.648 111.875 114.789C111.599 114.924 111.362 115.128 111.164 115.398C110.966 115.669 110.812 116 110.703 116.391C110.594 116.781 110.539 117.232 110.539 117.742V118.07C110.539 118.471 110.594 118.849 110.703 119.203C110.818 119.552 110.982 119.859 111.195 120.125C111.414 120.391 111.677 120.599 111.984 120.75C112.297 120.901 112.651 120.977 113.047 120.977C113.557 120.977 113.99 120.872 114.344 120.664C114.698 120.456 115.008 120.177 115.273 119.828L116.148 120.523C115.966 120.799 115.734 121.062 115.453 121.312C115.172 121.562 114.826 121.766 114.414 121.922C114.008 122.078 113.526 122.156 112.969 122.156ZM119.391 114.875V122H117.945V113.547H119.352L119.391 114.875ZM122.031 113.5L122.023 114.844C121.904 114.818 121.789 114.802 121.68 114.797C121.576 114.786 121.456 114.781 121.32 114.781C120.987 114.781 120.693 114.833 120.438 114.938C120.182 115.042 119.966 115.188 119.789 115.375C119.612 115.562 119.471 115.786 119.367 116.047C119.268 116.302 119.203 116.583 119.172 116.891L118.766 117.125C118.766 116.615 118.815 116.135 118.914 115.688C119.018 115.24 119.177 114.844 119.391 114.5C119.604 114.151 119.875 113.88 120.203 113.688C120.536 113.49 120.932 113.391 121.391 113.391C121.495 113.391 121.615 113.404 121.75 113.43C121.885 113.451 121.979 113.474 122.031 113.5ZM126.719 122.156C126.13 122.156 125.596 122.057 125.117 121.859C124.643 121.656 124.234 121.372 123.891 121.008C123.552 120.643 123.292 120.211 123.109 119.711C122.927 119.211 122.836 118.664 122.836 118.07V117.742C122.836 117.055 122.938 116.443 123.141 115.906C123.344 115.365 123.62 114.906 123.969 114.531C124.318 114.156 124.714 113.872 125.156 113.68C125.599 113.487 126.057 113.391 126.531 113.391C127.135 113.391 127.656 113.495 128.094 113.703C128.536 113.911 128.898 114.203 129.18 114.578C129.461 114.948 129.669 115.385 129.805 115.891C129.94 116.391 130.008 116.938 130.008 117.531V118.18H123.695V117H128.562V116.891C128.542 116.516 128.464 116.151 128.328 115.797C128.198 115.443 127.99 115.151 127.703 114.922C127.417 114.693 127.026 114.578 126.531 114.578C126.203 114.578 125.901 114.648 125.625 114.789C125.349 114.924 125.112 115.128 124.914 115.398C124.716 115.669 124.562 116 124.453 116.391C124.344 116.781 124.289 117.232 124.289 117.742V118.07C124.289 118.471 124.344 118.849 124.453 119.203C124.568 119.552 124.732 119.859 124.945 120.125C125.164 120.391 125.427 120.599 125.734 120.75C126.047 120.901 126.401 120.977 126.797 120.977C127.307 120.977 127.74 120.872 128.094 120.664C128.448 120.456 128.758 120.177 129.023 119.828L129.898 120.523C129.716 120.799 129.484 121.062 129.203 121.312C128.922 121.562 128.576 121.766 128.164 121.922C127.758 122.078 127.276 122.156 126.719 122.156ZM137.023 120.359V110H138.477V122H137.148L137.023 120.359ZM131.336 117.867V117.703C131.336 117.057 131.414 116.471 131.57 115.945C131.732 115.414 131.958 114.958 132.25 114.578C132.547 114.198 132.898 113.906 133.305 113.703C133.716 113.495 134.174 113.391 134.68 113.391C135.211 113.391 135.674 113.484 136.07 113.672C136.471 113.854 136.81 114.122 137.086 114.477C137.367 114.826 137.589 115.247 137.75 115.742C137.911 116.237 138.023 116.797 138.086 117.422V118.141C138.029 118.76 137.917 119.318 137.75 119.812C137.589 120.307 137.367 120.729 137.086 121.078C136.81 121.427 136.471 121.695 136.07 121.883C135.669 122.065 135.201 122.156 134.664 122.156C134.169 122.156 133.716 122.049 133.305 121.836C132.898 121.622 132.547 121.323 132.25 120.938C131.958 120.552 131.732 120.099 131.57 119.578C131.414 119.052 131.336 118.482 131.336 117.867ZM132.789 117.703V117.867C132.789 118.289 132.831 118.685 132.914 119.055C133.003 119.424 133.138 119.75 133.32 120.031C133.503 120.312 133.734 120.534 134.016 120.695C134.297 120.852 134.633 120.93 135.023 120.93C135.503 120.93 135.896 120.828 136.203 120.625C136.516 120.422 136.766 120.154 136.953 119.82C137.141 119.487 137.286 119.125 137.391 118.734V116.852C137.328 116.565 137.237 116.289 137.117 116.023C137.003 115.753 136.852 115.513 136.664 115.305C136.482 115.091 136.255 114.922 135.984 114.797C135.719 114.672 135.404 114.609 135.039 114.609C134.643 114.609 134.302 114.693 134.016 114.859C133.734 115.021 133.503 115.245 133.32 115.531C133.138 115.812 133.003 116.141 132.914 116.516C132.831 116.885 132.789 117.281 132.789 117.703ZM148.078 120.969C148.422 120.969 148.74 120.898 149.031 120.758C149.323 120.617 149.562 120.424 149.75 120.18C149.938 119.93 150.044 119.646 150.07 119.328H151.445C151.419 119.828 151.25 120.294 150.938 120.727C150.63 121.154 150.227 121.5 149.727 121.766C149.227 122.026 148.677 122.156 148.078 122.156C147.443 122.156 146.888 122.044 146.414 121.82C145.945 121.596 145.555 121.289 145.242 120.898C144.935 120.508 144.703 120.06 144.547 119.555C144.396 119.044 144.32 118.505 144.32 117.938V117.609C144.32 117.042 144.396 116.505 144.547 116C144.703 115.49 144.935 115.039 145.242 114.648C145.555 114.258 145.945 113.951 146.414 113.727C146.888 113.503 147.443 113.391 148.078 113.391C148.74 113.391 149.318 113.526 149.812 113.797C150.307 114.062 150.695 114.427 150.977 114.891C151.263 115.349 151.419 115.87 151.445 116.453H150.07C150.044 116.104 149.945 115.789 149.773 115.508C149.607 115.227 149.378 115.003 149.086 114.836C148.799 114.664 148.464 114.578 148.078 114.578C147.635 114.578 147.263 114.667 146.961 114.844C146.664 115.016 146.427 115.25 146.25 115.547C146.078 115.839 145.953 116.164 145.875 116.523C145.802 116.878 145.766 117.24 145.766 117.609V117.938C145.766 118.307 145.802 118.672 145.875 119.031C145.948 119.391 146.07 119.716 146.242 120.008C146.419 120.299 146.656 120.534 146.953 120.711C147.255 120.883 147.63 120.969 148.078 120.969ZM152.688 117.867V117.688C152.688 117.078 152.776 116.513 152.953 115.992C153.13 115.466 153.385 115.01 153.719 114.625C154.052 114.234 154.456 113.932 154.93 113.719C155.404 113.5 155.935 113.391 156.523 113.391C157.117 113.391 157.651 113.5 158.125 113.719C158.604 113.932 159.01 114.234 159.344 114.625C159.682 115.01 159.94 115.466 160.117 115.992C160.294 116.513 160.383 117.078 160.383 117.688V117.867C160.383 118.477 160.294 119.042 160.117 119.562C159.94 120.083 159.682 120.539 159.344 120.93C159.01 121.315 158.607 121.617 158.133 121.836C157.664 122.049 157.133 122.156 156.539 122.156C155.945 122.156 155.411 122.049 154.938 121.836C154.464 121.617 154.057 121.315 153.719 120.93C153.385 120.539 153.13 120.083 152.953 119.562C152.776 119.042 152.688 118.477 152.688 117.867ZM154.133 117.688V117.867C154.133 118.289 154.182 118.688 154.281 119.062C154.38 119.432 154.529 119.76 154.727 120.047C154.93 120.333 155.182 120.56 155.484 120.727C155.786 120.888 156.138 120.969 156.539 120.969C156.935 120.969 157.281 120.888 157.578 120.727C157.88 120.56 158.13 120.333 158.328 120.047C158.526 119.76 158.674 119.432 158.773 119.062C158.878 118.688 158.93 118.289 158.93 117.867V117.688C158.93 117.271 158.878 116.878 158.773 116.508C158.674 116.133 158.523 115.802 158.32 115.516C158.122 115.224 157.872 114.995 157.57 114.828C157.273 114.661 156.924 114.578 156.523 114.578C156.128 114.578 155.779 114.661 155.477 114.828C155.18 114.995 154.93 115.224 154.727 115.516C154.529 115.802 154.38 116.133 154.281 116.508C154.182 116.878 154.133 117.271 154.133 117.688ZM163.766 110V122H162.312V110H163.766ZM167.656 110V122H166.203V110H167.656ZM173.484 122.156C172.896 122.156 172.362 122.057 171.883 121.859C171.409 121.656 171 121.372 170.656 121.008C170.318 120.643 170.057 120.211 169.875 119.711C169.693 119.211 169.602 118.664 169.602 118.07V117.742C169.602 117.055 169.703 116.443 169.906 115.906C170.109 115.365 170.385 114.906 170.734 114.531C171.083 114.156 171.479 113.872 171.922 113.68C172.365 113.487 172.823 113.391 173.297 113.391C173.901 113.391 174.422 113.495 174.859 113.703C175.302 113.911 175.664 114.203 175.945 114.578C176.227 114.948 176.435 115.385 176.57 115.891C176.706 116.391 176.773 116.938 176.773 117.531V118.18H170.461V117H175.328V116.891C175.307 116.516 175.229 116.151 175.094 115.797C174.964 115.443 174.755 115.151 174.469 114.922C174.182 114.693 173.792 114.578 173.297 114.578C172.969 114.578 172.667 114.648 172.391 114.789C172.115 114.924 171.878 115.128 171.68 115.398C171.482 115.669 171.328 116 171.219 116.391C171.109 116.781 171.055 117.232 171.055 117.742V118.07C171.055 118.471 171.109 118.849 171.219 119.203C171.333 119.552 171.497 119.859 171.711 120.125C171.93 120.391 172.193 120.599 172.5 120.75C172.812 120.901 173.167 120.977 173.562 120.977C174.073 120.977 174.505 120.872 174.859 120.664C175.214 120.456 175.523 120.177 175.789 119.828L176.664 120.523C176.482 120.799 176.25 121.062 175.969 121.312C175.688 121.562 175.341 121.766 174.93 121.922C174.523 122.078 174.042 122.156 173.484 122.156ZM183.938 113.547H185.25V121.82C185.25 122.565 185.099 123.201 184.797 123.727C184.495 124.253 184.073 124.651 183.531 124.922C182.995 125.198 182.375 125.336 181.672 125.336C181.38 125.336 181.036 125.289 180.641 125.195C180.25 125.107 179.865 124.953 179.484 124.734C179.109 124.521 178.794 124.232 178.539 123.867L179.297 123.008C179.651 123.435 180.021 123.732 180.406 123.898C180.797 124.065 181.182 124.148 181.562 124.148C182.021 124.148 182.417 124.062 182.75 123.891C183.083 123.719 183.341 123.464 183.523 123.125C183.711 122.792 183.805 122.38 183.805 121.891V115.406L183.938 113.547ZM178.117 117.867V117.703C178.117 117.057 178.193 116.471 178.344 115.945C178.5 115.414 178.721 114.958 179.008 114.578C179.299 114.198 179.651 113.906 180.062 113.703C180.474 113.495 180.938 113.391 181.453 113.391C181.984 113.391 182.448 113.484 182.844 113.672C183.245 113.854 183.583 114.122 183.859 114.477C184.141 114.826 184.362 115.247 184.523 115.742C184.685 116.237 184.797 116.797 184.859 117.422V118.141C184.802 118.76 184.69 119.318 184.523 119.812C184.362 120.307 184.141 120.729 183.859 121.078C183.583 121.427 183.245 121.695 182.844 121.883C182.443 122.065 181.974 122.156 181.438 122.156C180.932 122.156 180.474 122.049 180.062 121.836C179.656 121.622 179.307 121.323 179.016 120.938C178.724 120.552 178.5 120.099 178.344 119.578C178.193 119.052 178.117 118.482 178.117 117.867ZM179.562 117.703V117.867C179.562 118.289 179.604 118.685 179.688 119.055C179.776 119.424 179.909 119.75 180.086 120.031C180.268 120.312 180.5 120.534 180.781 120.695C181.062 120.852 181.398 120.93 181.789 120.93C182.268 120.93 182.664 120.828 182.977 120.625C183.289 120.422 183.536 120.154 183.719 119.82C183.906 119.487 184.052 119.125 184.156 118.734V116.852C184.099 116.565 184.01 116.289 183.891 116.023C183.776 115.753 183.625 115.513 183.438 115.305C183.255 115.091 183.029 114.922 182.758 114.797C182.487 114.672 182.169 114.609 181.805 114.609C181.409 114.609 181.068 114.693 180.781 114.859C180.5 115.021 180.268 115.245 180.086 115.531C179.909 115.812 179.776 116.141 179.688 116.516C179.604 116.885 179.562 117.281 179.562 117.703ZM190.953 122.156C190.365 122.156 189.831 122.057 189.352 121.859C188.878 121.656 188.469 121.372 188.125 121.008C187.786 120.643 187.526 120.211 187.344 119.711C187.161 119.211 187.07 118.664 187.07 118.07V117.742C187.07 117.055 187.172 116.443 187.375 115.906C187.578 115.365 187.854 114.906 188.203 114.531C188.552 114.156 188.948 113.872 189.391 113.68C189.833 113.487 190.292 113.391 190.766 113.391C191.37 113.391 191.891 113.495 192.328 113.703C192.771 113.911 193.133 114.203 193.414 114.578C193.695 114.948 193.904 115.385 194.039 115.891C194.174 116.391 194.242 116.938 194.242 117.531V118.18H187.93V117H192.797V116.891C192.776 116.516 192.698 116.151 192.562 115.797C192.432 115.443 192.224 115.151 191.938 114.922C191.651 114.693 191.26 114.578 190.766 114.578C190.438 114.578 190.135 114.648 189.859 114.789C189.583 114.924 189.346 115.128 189.148 115.398C188.951 115.669 188.797 116 188.688 116.391C188.578 116.781 188.523 117.232 188.523 117.742V118.07C188.523 118.471 188.578 118.849 188.688 119.203C188.802 119.552 188.966 119.859 189.18 120.125C189.398 120.391 189.661 120.599 189.969 120.75C190.281 120.901 190.635 120.977 191.031 120.977C191.542 120.977 191.974 120.872 192.328 120.664C192.682 120.456 192.992 120.177 193.258 119.828L194.133 120.523C193.951 120.799 193.719 121.062 193.438 121.312C193.156 121.562 192.81 121.766 192.398 121.922C191.992 122.078 191.51 122.156 190.953 122.156ZM6.08594 144.555V140.203C6.08594 139.87 6.01823 139.581 5.88281 139.336C5.7526 139.086 5.55469 138.893 5.28906 138.758C5.02344 138.622 4.69531 138.555 4.30469 138.555C3.9401 138.555 3.61979 138.617 3.34375 138.742C3.07292 138.867 2.85938 139.031 2.70312 139.234C2.55208 139.438 2.47656 139.656 2.47656 139.891H1.03125C1.03125 139.589 1.10938 139.289 1.26562 138.992C1.42188 138.695 1.64583 138.427 1.9375 138.188C2.23438 137.943 2.58854 137.75 3 137.609C3.41667 137.464 3.88021 137.391 4.39062 137.391C5.00521 137.391 5.54688 137.495 6.01562 137.703C6.48958 137.911 6.85938 138.227 7.125 138.648C7.39583 139.065 7.53125 139.589 7.53125 140.219V144.156C7.53125 144.438 7.55469 144.737 7.60156 145.055C7.65365 145.372 7.72917 145.646 7.82812 145.875V146H6.32031C6.2474 145.833 6.1901 145.612 6.14844 145.336C6.10677 145.055 6.08594 144.794 6.08594 144.555ZM6.33594 140.875L6.35156 141.891H4.89062C4.47917 141.891 4.11198 141.924 3.78906 141.992C3.46615 142.055 3.19531 142.151 2.97656 142.281C2.75781 142.411 2.59115 142.576 2.47656 142.773C2.36198 142.966 2.30469 143.193 2.30469 143.453C2.30469 143.719 2.36458 143.961 2.48438 144.18C2.60417 144.398 2.78385 144.573 3.02344 144.703C3.26823 144.828 3.56771 144.891 3.92188 144.891C4.36458 144.891 4.75521 144.797 5.09375 144.609C5.43229 144.422 5.70052 144.193 5.89844 143.922C6.10156 143.651 6.21094 143.388 6.22656 143.133L6.84375 143.828C6.80729 144.047 6.70833 144.289 6.54688 144.555C6.38542 144.82 6.16927 145.076 5.89844 145.32C5.63281 145.56 5.3151 145.76 4.94531 145.922C4.58073 146.078 4.16927 146.156 3.71094 146.156C3.13802 146.156 2.63542 146.044 2.20312 145.82C1.77604 145.596 1.44271 145.297 1.20312 144.922C0.96875 144.542 0.851562 144.117 0.851562 143.648C0.851562 143.195 0.940104 142.797 1.11719 142.453C1.29427 142.104 1.54948 141.815 1.88281 141.586C2.21615 141.352 2.61719 141.174 3.08594 141.055C3.55469 140.935 4.07812 140.875 4.65625 140.875H6.33594ZM11.25 139.172V149.25H9.79688V137.547H11.125L11.25 139.172ZM16.9453 141.703V141.867C16.9453 142.482 16.8724 143.052 16.7266 143.578C16.5807 144.099 16.3672 144.552 16.0859 144.938C15.8099 145.323 15.4688 145.622 15.0625 145.836C14.6562 146.049 14.1901 146.156 13.6641 146.156C13.1276 146.156 12.6536 146.068 12.2422 145.891C11.8307 145.714 11.4818 145.456 11.1953 145.117C10.9089 144.779 10.6797 144.372 10.5078 143.898C10.3411 143.424 10.2266 142.891 10.1641 142.297V141.422C10.2266 140.797 10.3438 140.237 10.5156 139.742C10.6875 139.247 10.9141 138.826 11.1953 138.477C11.4818 138.122 11.8281 137.854 12.2344 137.672C12.6406 137.484 13.1094 137.391 13.6406 137.391C14.1719 137.391 14.6432 137.495 15.0547 137.703C15.4661 137.906 15.8125 138.198 16.0938 138.578C16.375 138.958 16.5859 139.414 16.7266 139.945C16.8724 140.471 16.9453 141.057 16.9453 141.703ZM15.4922 141.867V141.703C15.4922 141.281 15.4479 140.885 15.3594 140.516C15.2708 140.141 15.1328 139.812 14.9453 139.531C14.763 139.245 14.5286 139.021 14.2422 138.859C13.9557 138.693 13.6146 138.609 13.2188 138.609C12.8542 138.609 12.5365 138.672 12.2656 138.797C12 138.922 11.7734 139.091 11.5859 139.305C11.3984 139.513 11.2448 139.753 11.125 140.023C11.0104 140.289 10.9245 140.565 10.8672 140.852V142.875C10.9714 143.24 11.1172 143.583 11.3047 143.906C11.4922 144.224 11.7422 144.482 12.0547 144.68C12.3672 144.872 12.7604 144.969 13.2344 144.969C13.625 144.969 13.9609 144.888 14.2422 144.727C14.5286 144.56 14.763 144.333 14.9453 144.047C15.1328 143.76 15.2708 143.432 15.3594 143.062C15.4479 142.688 15.4922 142.289 15.4922 141.867ZM20.2344 139.172V149.25H18.7812V137.547H20.1094L20.2344 139.172ZM25.9297 141.703V141.867C25.9297 142.482 25.8568 143.052 25.7109 143.578C25.5651 144.099 25.3516 144.552 25.0703 144.938C24.7943 145.323 24.4531 145.622 24.0469 145.836C23.6406 146.049 23.1745 146.156 22.6484 146.156C22.112 146.156 21.638 146.068 21.2266 145.891C20.8151 145.714 20.4661 145.456 20.1797 145.117C19.8932 144.779 19.6641 144.372 19.4922 143.898C19.3255 143.424 19.2109 142.891 19.1484 142.297V141.422C19.2109 140.797 19.3281 140.237 19.5 139.742C19.6719 139.247 19.8984 138.826 20.1797 138.477C20.4661 138.122 20.8125 137.854 21.2188 137.672C21.625 137.484 22.0938 137.391 22.625 137.391C23.1562 137.391 23.6276 137.495 24.0391 137.703C24.4505 137.906 24.7969 138.198 25.0781 138.578C25.3594 138.958 25.5703 139.414 25.7109 139.945C25.8568 140.471 25.9297 141.057 25.9297 141.703ZM24.4766 141.867V141.703C24.4766 141.281 24.4323 140.885 24.3438 140.516C24.2552 140.141 24.1172 139.812 23.9297 139.531C23.7474 139.245 23.513 139.021 23.2266 138.859C22.9401 138.693 22.599 138.609 22.2031 138.609C21.8385 138.609 21.5208 138.672 21.25 138.797C20.9844 138.922 20.7578 139.091 20.5703 139.305C20.3828 139.513 20.2292 139.753 20.1094 140.023C19.9948 140.289 19.9089 140.565 19.8516 140.852V142.875C19.9557 143.24 20.1016 143.583 20.2891 143.906C20.4766 144.224 20.7266 144.482 21.0391 144.68C21.3516 144.872 21.7448 144.969 22.2188 144.969C22.6094 144.969 22.9453 144.888 23.2266 144.727C23.513 144.56 23.7474 144.333 23.9297 144.047C24.1172 143.76 24.2552 143.432 24.3438 143.062C24.4323 142.688 24.4766 142.289 24.4766 141.867ZM29.3438 134V146H27.8906V134H29.3438ZM33.2344 137.547V146H31.7812V137.547H33.2344ZM31.6719 135.305C31.6719 135.07 31.7422 134.872 31.8828 134.711C32.0286 134.549 32.2422 134.469 32.5234 134.469C32.7995 134.469 33.0104 134.549 33.1562 134.711C33.3073 134.872 33.3828 135.07 33.3828 135.305C33.3828 135.529 33.3073 135.721 33.1562 135.883C33.0104 136.039 32.7995 136.117 32.5234 136.117C32.2422 136.117 32.0286 136.039 31.8828 135.883C31.7422 135.721 31.6719 135.529 31.6719 135.305ZM38.9375 144.969C39.2812 144.969 39.599 144.898 39.8906 144.758C40.1823 144.617 40.4219 144.424 40.6094 144.18C40.7969 143.93 40.9036 143.646 40.9297 143.328H42.3047C42.2786 143.828 42.1094 144.294 41.7969 144.727C41.4896 145.154 41.0859 145.5 40.5859 145.766C40.0859 146.026 39.5365 146.156 38.9375 146.156C38.3021 146.156 37.7474 146.044 37.2734 145.82C36.8047 145.596 36.4141 145.289 36.1016 144.898C35.7943 144.508 35.5625 144.06 35.4062 143.555C35.2552 143.044 35.1797 142.505 35.1797 141.938V141.609C35.1797 141.042 35.2552 140.505 35.4062 140C35.5625 139.49 35.7943 139.039 36.1016 138.648C36.4141 138.258 36.8047 137.951 37.2734 137.727C37.7474 137.503 38.3021 137.391 38.9375 137.391C39.599 137.391 40.1771 137.526 40.6719 137.797C41.1667 138.062 41.5547 138.427 41.8359 138.891C42.1224 139.349 42.2786 139.87 42.3047 140.453H40.9297C40.9036 140.104 40.8047 139.789 40.6328 139.508C40.4661 139.227 40.237 139.003 39.9453 138.836C39.6589 138.664 39.3229 138.578 38.9375 138.578C38.4948 138.578 38.1224 138.667 37.8203 138.844C37.5234 139.016 37.2865 139.25 37.1094 139.547C36.9375 139.839 36.8125 140.164 36.7344 140.523C36.6615 140.878 36.625 141.24 36.625 141.609V141.938C36.625 142.307 36.6615 142.672 36.7344 143.031C36.8073 143.391 36.9297 143.716 37.1016 144.008C37.2786 144.299 37.5156 144.534 37.8125 144.711C38.1146 144.883 38.4896 144.969 38.9375 144.969ZM48.9141 144.555V140.203C48.9141 139.87 48.8464 139.581 48.7109 139.336C48.5807 139.086 48.3828 138.893 48.1172 138.758C47.8516 138.622 47.5234 138.555 47.1328 138.555C46.7682 138.555 46.4479 138.617 46.1719 138.742C45.901 138.867 45.6875 139.031 45.5312 139.234C45.3802 139.438 45.3047 139.656 45.3047 139.891H43.8594C43.8594 139.589 43.9375 139.289 44.0938 138.992C44.25 138.695 44.474 138.427 44.7656 138.188C45.0625 137.943 45.4167 137.75 45.8281 137.609C46.2448 137.464 46.7083 137.391 47.2188 137.391C47.8333 137.391 48.375 137.495 48.8438 137.703C49.3177 137.911 49.6875 138.227 49.9531 138.648C50.224 139.065 50.3594 139.589 50.3594 140.219V144.156C50.3594 144.438 50.3828 144.737 50.4297 145.055C50.4818 145.372 50.5573 145.646 50.6562 145.875V146H49.1484C49.0755 145.833 49.0182 145.612 48.9766 145.336C48.9349 145.055 48.9141 144.794 48.9141 144.555ZM49.1641 140.875L49.1797 141.891H47.7188C47.3073 141.891 46.9401 141.924 46.6172 141.992C46.2943 142.055 46.0234 142.151 45.8047 142.281C45.5859 142.411 45.4193 142.576 45.3047 142.773C45.1901 142.966 45.1328 143.193 45.1328 143.453C45.1328 143.719 45.1927 143.961 45.3125 144.18C45.4323 144.398 45.612 144.573 45.8516 144.703C46.0964 144.828 46.3958 144.891 46.75 144.891C47.1927 144.891 47.5833 144.797 47.9219 144.609C48.2604 144.422 48.5286 144.193 48.7266 143.922C48.9297 143.651 49.0391 143.388 49.0547 143.133L49.6719 143.828C49.6354 144.047 49.5365 144.289 49.375 144.555C49.2135 144.82 48.9974 145.076 48.7266 145.32C48.4609 145.56 48.1432 145.76 47.7734 145.922C47.4089 146.078 46.9974 146.156 46.5391 146.156C45.9661 146.156 45.4635 146.044 45.0312 145.82C44.6042 145.596 44.2708 145.297 44.0312 144.922C43.7969 144.542 43.6797 144.117 43.6797 143.648C43.6797 143.195 43.7682 142.797 43.9453 142.453C44.1224 142.104 44.3776 141.815 44.7109 141.586C45.0443 141.352 45.4453 141.174 45.9141 141.055C46.3828 140.935 46.9062 140.875 47.4844 140.875H49.1641ZM56.1719 137.547V138.656H51.6016V137.547H56.1719ZM53.1484 135.492H54.5938V143.906C54.5938 144.193 54.638 144.409 54.7266 144.555C54.8151 144.701 54.9297 144.797 55.0703 144.844C55.2109 144.891 55.362 144.914 55.5234 144.914C55.6432 144.914 55.7682 144.904 55.8984 144.883C56.0339 144.857 56.1354 144.836 56.2031 144.82L56.2109 146C56.0964 146.036 55.9453 146.07 55.7578 146.102C55.5755 146.138 55.3542 146.156 55.0938 146.156C54.7396 146.156 54.4141 146.086 54.1172 145.945C53.8203 145.805 53.5833 145.57 53.4062 145.242C53.2344 144.909 53.1484 144.461 53.1484 143.898V135.492ZM59.4375 137.547V146H57.9844V137.547H59.4375ZM57.875 135.305C57.875 135.07 57.9453 134.872 58.0859 134.711C58.2318 134.549 58.4453 134.469 58.7266 134.469C59.0026 134.469 59.2135 134.549 59.3594 134.711C59.5104 134.872 59.5859 135.07 59.5859 135.305C59.5859 135.529 59.5104 135.721 59.3594 135.883C59.2135 136.039 59.0026 136.117 58.7266 136.117C58.4453 136.117 58.2318 136.039 58.0859 135.883C57.9453 135.721 57.875 135.529 57.875 135.305ZM61.375 141.867V141.688C61.375 141.078 61.4635 140.513 61.6406 139.992C61.8177 139.466 62.0729 139.01 62.4062 138.625C62.7396 138.234 63.1432 137.932 63.6172 137.719C64.0911 137.5 64.6224 137.391 65.2109 137.391C65.8047 137.391 66.3385 137.5 66.8125 137.719C67.2917 137.932 67.6979 138.234 68.0312 138.625C68.3698 139.01 68.6276 139.466 68.8047 139.992C68.9818 140.513 69.0703 141.078 69.0703 141.688V141.867C69.0703 142.477 68.9818 143.042 68.8047 143.562C68.6276 144.083 68.3698 144.539 68.0312 144.93C67.6979 145.315 67.2943 145.617 66.8203 145.836C66.3516 146.049 65.8203 146.156 65.2266 146.156C64.6328 146.156 64.099 146.049 63.625 145.836C63.151 145.617 62.7448 145.315 62.4062 144.93C62.0729 144.539 61.8177 144.083 61.6406 143.562C61.4635 143.042 61.375 142.477 61.375 141.867ZM62.8203 141.688V141.867C62.8203 142.289 62.8698 142.688 62.9688 143.062C63.0677 143.432 63.2161 143.76 63.4141 144.047C63.6172 144.333 63.8698 144.56 64.1719 144.727C64.474 144.888 64.8255 144.969 65.2266 144.969C65.6224 144.969 65.9688 144.888 66.2656 144.727C66.5677 144.56 66.8177 144.333 67.0156 144.047C67.2135 143.76 67.362 143.432 67.4609 143.062C67.5651 142.688 67.6172 142.289 67.6172 141.867V141.688C67.6172 141.271 67.5651 140.878 67.4609 140.508C67.362 140.133 67.2109 139.802 67.0078 139.516C66.8099 139.224 66.5599 138.995 66.2578 138.828C65.9609 138.661 65.612 138.578 65.2109 138.578C64.8151 138.578 64.4661 138.661 64.1641 138.828C63.8672 138.995 63.6172 139.224 63.4141 139.516C63.2161 139.802 63.0677 140.133 62.9688 140.508C62.8698 140.878 62.8203 141.271 62.8203 141.688ZM72.3281 139.352V146H70.8828V137.547H72.25L72.3281 139.352ZM71.9844 141.453L71.3828 141.43C71.388 140.852 71.474 140.318 71.6406 139.828C71.8073 139.333 72.0417 138.904 72.3438 138.539C72.6458 138.174 73.0052 137.893 73.4219 137.695C73.8438 137.492 74.3099 137.391 74.8203 137.391C75.237 137.391 75.612 137.448 75.9453 137.562C76.2786 137.672 76.5625 137.849 76.7969 138.094C77.0365 138.339 77.2188 138.656 77.3438 139.047C77.4688 139.432 77.5312 139.904 77.5312 140.461V146H76.0781V140.445C76.0781 140.003 76.013 139.648 75.8828 139.383C75.7526 139.112 75.5625 138.917 75.3125 138.797C75.0625 138.672 74.7552 138.609 74.3906 138.609C74.0312 138.609 73.7031 138.685 73.4062 138.836C73.1146 138.987 72.862 139.195 72.6484 139.461C72.4401 139.727 72.276 140.031 72.1562 140.375C72.0417 140.714 71.9844 141.073 71.9844 141.453ZM88.1797 144.203V140.305C88.1797 140.018 88.1302 139.771 88.0312 139.562C87.9323 139.354 87.7812 139.193 87.5781 139.078C87.375 138.964 87.1172 138.906 86.8047 138.906C86.5286 138.906 86.2865 138.953 86.0781 139.047C85.875 139.141 85.7188 139.273 85.6094 139.445C85.5 139.612 85.4453 139.805 85.4453 140.023H83.375C83.375 139.674 83.4583 139.344 83.625 139.031C83.7917 138.714 84.0286 138.432 84.3359 138.188C84.6484 137.938 85.0208 137.742 85.4531 137.602C85.8906 137.461 86.3802 137.391 86.9219 137.391C87.5625 137.391 88.1328 137.5 88.6328 137.719C89.138 137.932 89.5339 138.255 89.8203 138.688C90.112 139.12 90.2578 139.664 90.2578 140.32V144.008C90.2578 144.43 90.2839 144.792 90.3359 145.094C90.3932 145.391 90.4766 145.648 90.5859 145.867V146H88.4844C88.3854 145.786 88.3099 145.516 88.2578 145.188C88.2057 144.854 88.1797 144.526 88.1797 144.203ZM88.4688 140.852L88.4844 142.078H87.1797C86.8568 142.078 86.5729 142.112 86.3281 142.18C86.0833 142.242 85.8828 142.336 85.7266 142.461C85.5703 142.581 85.4531 142.727 85.375 142.898C85.2969 143.065 85.2578 143.255 85.2578 143.469C85.2578 143.677 85.3047 143.865 85.3984 144.031C85.4974 144.198 85.638 144.331 85.8203 144.43C86.0078 144.523 86.2266 144.57 86.4766 144.57C86.8411 144.57 87.1589 144.497 87.4297 144.352C87.7005 144.201 87.9115 144.018 88.0625 143.805C88.2135 143.591 88.2943 143.388 88.3047 143.195L88.8984 144.086C88.8255 144.299 88.7161 144.526 88.5703 144.766C88.4245 145.005 88.237 145.229 88.0078 145.438C87.7786 145.646 87.5026 145.818 87.1797 145.953C86.8568 146.089 86.4818 146.156 86.0547 146.156C85.5078 146.156 85.0182 146.047 84.5859 145.828C84.1536 145.609 83.8125 145.31 83.5625 144.93C83.3125 144.549 83.1875 144.117 83.1875 143.633C83.1875 143.185 83.2708 142.789 83.4375 142.445C83.6042 142.102 83.8516 141.812 84.1797 141.578C84.5078 141.339 84.9141 141.159 85.3984 141.039C85.888 140.914 86.4479 140.852 87.0781 140.852H88.4688ZM96.7656 143.688C96.7656 143.51 96.7188 143.352 96.625 143.211C96.5312 143.07 96.3542 142.943 96.0938 142.828C95.8385 142.708 95.4635 142.596 94.9688 142.492C94.5312 142.398 94.1276 142.281 93.7578 142.141C93.388 142 93.0703 141.831 92.8047 141.633C92.5391 141.43 92.3307 141.193 92.1797 140.922C92.0339 140.646 91.9609 140.328 91.9609 139.969C91.9609 139.62 92.0365 139.292 92.1875 138.984C92.3385 138.672 92.5573 138.398 92.8438 138.164C93.1302 137.924 93.4792 137.737 93.8906 137.602C94.3021 137.461 94.7656 137.391 95.2812 137.391C96 137.391 96.6172 137.508 97.1328 137.742C97.6536 137.977 98.0521 138.299 98.3281 138.711C98.6042 139.117 98.7422 139.576 98.7422 140.086H96.6797C96.6797 139.862 96.6276 139.659 96.5234 139.477C96.4245 139.294 96.2708 139.148 96.0625 139.039C95.8542 138.924 95.5911 138.867 95.2734 138.867C94.987 138.867 94.7448 138.914 94.5469 139.008C94.3542 139.102 94.2083 139.224 94.1094 139.375C94.0104 139.526 93.9609 139.693 93.9609 139.875C93.9609 140.01 93.987 140.133 94.0391 140.242C94.0964 140.346 94.1875 140.443 94.3125 140.531C94.4375 140.62 94.6068 140.701 94.8203 140.773C95.0391 140.846 95.3073 140.917 95.625 140.984C96.2552 141.109 96.8047 141.276 97.2734 141.484C97.7474 141.688 98.1172 141.958 98.3828 142.297C98.6484 142.635 98.7812 143.068 98.7812 143.594C98.7812 143.969 98.7005 144.312 98.5391 144.625C98.3776 144.932 98.1432 145.201 97.8359 145.43C97.5286 145.659 97.1615 145.839 96.7344 145.969C96.3073 146.094 95.8255 146.156 95.2891 146.156C94.513 146.156 93.8568 146.018 93.3203 145.742C92.7839 145.461 92.3776 145.107 92.1016 144.68C91.8255 144.247 91.6875 143.799 91.6875 143.336H93.6641C93.6797 143.664 93.7682 143.927 93.9297 144.125C94.0911 144.323 94.2943 144.466 94.5391 144.555C94.7891 144.638 95.0521 144.68 95.3281 144.68C95.6406 144.68 95.9036 144.638 96.1172 144.555C96.3307 144.466 96.4922 144.349 96.6016 144.203C96.7109 144.052 96.7656 143.88 96.7656 143.688ZM105 143.688C105 143.51 104.953 143.352 104.859 143.211C104.766 143.07 104.589 142.943 104.328 142.828C104.073 142.708 103.698 142.596 103.203 142.492C102.766 142.398 102.362 142.281 101.992 142.141C101.622 142 101.305 141.831 101.039 141.633C100.773 141.43 100.565 141.193 100.414 140.922C100.268 140.646 100.195 140.328 100.195 139.969C100.195 139.62 100.271 139.292 100.422 138.984C100.573 138.672 100.792 138.398 101.078 138.164C101.365 137.924 101.714 137.737 102.125 137.602C102.536 137.461 103 137.391 103.516 137.391C104.234 137.391 104.852 137.508 105.367 137.742C105.888 137.977 106.286 138.299 106.562 138.711C106.839 139.117 106.977 139.576 106.977 140.086H104.914C104.914 139.862 104.862 139.659 104.758 139.477C104.659 139.294 104.505 139.148 104.297 139.039C104.089 138.924 103.826 138.867 103.508 138.867C103.221 138.867 102.979 138.914 102.781 139.008C102.589 139.102 102.443 139.224 102.344 139.375C102.245 139.526 102.195 139.693 102.195 139.875C102.195 140.01 102.221 140.133 102.273 140.242C102.331 140.346 102.422 140.443 102.547 140.531C102.672 140.62 102.841 140.701 103.055 140.773C103.273 140.846 103.542 140.917 103.859 140.984C104.49 141.109 105.039 141.276 105.508 141.484C105.982 141.688 106.352 141.958 106.617 142.297C106.883 142.635 107.016 143.068 107.016 143.594C107.016 143.969 106.935 144.312 106.773 144.625C106.612 144.932 106.378 145.201 106.07 145.43C105.763 145.659 105.396 145.839 104.969 145.969C104.542 146.094 104.06 146.156 103.523 146.156C102.747 146.156 102.091 146.018 101.555 145.742C101.018 145.461 100.612 145.107 100.336 144.68C100.06 144.247 99.9219 143.799 99.9219 143.336H101.898C101.914 143.664 102.003 143.927 102.164 144.125C102.326 144.323 102.529 144.466 102.773 144.555C103.023 144.638 103.286 144.68 103.562 144.68C103.875 144.68 104.138 144.638 104.352 144.555C104.565 144.466 104.727 144.349 104.836 144.203C104.945 144.052 105 143.88 105 143.688ZM110.773 137.547V146H108.703V137.547H110.773ZM108.562 135.336C108.562 135.029 108.667 134.773 108.875 134.57C109.089 134.367 109.375 134.266 109.734 134.266C110.094 134.266 110.378 134.367 110.586 134.57C110.799 134.773 110.906 135.029 110.906 135.336C110.906 135.638 110.799 135.891 110.586 136.094C110.378 136.297 110.094 136.398 109.734 136.398C109.375 136.398 109.089 136.297 108.875 136.094C108.667 135.891 108.562 135.638 108.562 135.336ZM117.391 143.688C117.391 143.51 117.344 143.352 117.25 143.211C117.156 143.07 116.979 142.943 116.719 142.828C116.464 142.708 116.089 142.596 115.594 142.492C115.156 142.398 114.753 142.281 114.383 142.141C114.013 142 113.695 141.831 113.43 141.633C113.164 141.43 112.956 141.193 112.805 140.922C112.659 140.646 112.586 140.328 112.586 139.969C112.586 139.62 112.661 139.292 112.812 138.984C112.964 138.672 113.182 138.398 113.469 138.164C113.755 137.924 114.104 137.737 114.516 137.602C114.927 137.461 115.391 137.391 115.906 137.391C116.625 137.391 117.242 137.508 117.758 137.742C118.279 137.977 118.677 138.299 118.953 138.711C119.229 139.117 119.367 139.576 119.367 140.086H117.305C117.305 139.862 117.253 139.659 117.148 139.477C117.049 139.294 116.896 139.148 116.688 139.039C116.479 138.924 116.216 138.867 115.898 138.867C115.612 138.867 115.37 138.914 115.172 139.008C114.979 139.102 114.833 139.224 114.734 139.375C114.635 139.526 114.586 139.693 114.586 139.875C114.586 140.01 114.612 140.133 114.664 140.242C114.721 140.346 114.812 140.443 114.938 140.531C115.062 140.62 115.232 140.701 115.445 140.773C115.664 140.846 115.932 140.917 116.25 140.984C116.88 141.109 117.43 141.276 117.898 141.484C118.372 141.688 118.742 141.958 119.008 142.297C119.273 142.635 119.406 143.068 119.406 143.594C119.406 143.969 119.326 144.312 119.164 144.625C119.003 144.932 118.768 145.201 118.461 145.43C118.154 145.659 117.786 145.839 117.359 145.969C116.932 146.094 116.451 146.156 115.914 146.156C115.138 146.156 114.482 146.018 113.945 145.742C113.409 145.461 113.003 145.107 112.727 144.68C112.451 144.247 112.312 143.799 112.312 143.336H114.289C114.305 143.664 114.393 143.927 114.555 144.125C114.716 144.323 114.919 144.466 115.164 144.555C115.414 144.638 115.677 144.68 115.953 144.68C116.266 144.68 116.529 144.638 116.742 144.555C116.956 144.466 117.117 144.349 117.227 144.203C117.336 144.052 117.391 143.88 117.391 143.688ZM124.977 137.547V139.031H120.133V137.547H124.977ZM121.43 135.469H123.5V143.562C123.5 143.812 123.534 144.005 123.602 144.141C123.669 144.276 123.771 144.367 123.906 144.414C124.042 144.461 124.203 144.484 124.391 144.484C124.526 144.484 124.651 144.477 124.766 144.461C124.88 144.445 124.977 144.43 125.055 144.414L125.062 145.961C124.891 146.018 124.695 146.065 124.477 146.102C124.263 146.138 124.021 146.156 123.75 146.156C123.286 146.156 122.88 146.078 122.531 145.922C122.182 145.76 121.911 145.503 121.719 145.148C121.526 144.789 121.43 144.315 121.43 143.727V135.469ZM131.008 144.203V140.305C131.008 140.018 130.958 139.771 130.859 139.562C130.76 139.354 130.609 139.193 130.406 139.078C130.203 138.964 129.945 138.906 129.633 138.906C129.357 138.906 129.115 138.953 128.906 139.047C128.703 139.141 128.547 139.273 128.438 139.445C128.328 139.612 128.273 139.805 128.273 140.023H126.203C126.203 139.674 126.286 139.344 126.453 139.031C126.62 138.714 126.857 138.432 127.164 138.188C127.477 137.938 127.849 137.742 128.281 137.602C128.719 137.461 129.208 137.391 129.75 137.391C130.391 137.391 130.961 137.5 131.461 137.719C131.966 137.932 132.362 138.255 132.648 138.688C132.94 139.12 133.086 139.664 133.086 140.32V144.008C133.086 144.43 133.112 144.792 133.164 145.094C133.221 145.391 133.305 145.648 133.414 145.867V146H131.312C131.214 145.786 131.138 145.516 131.086 145.188C131.034 144.854 131.008 144.526 131.008 144.203ZM131.297 140.852L131.312 142.078H130.008C129.685 142.078 129.401 142.112 129.156 142.18C128.911 142.242 128.711 142.336 128.555 142.461C128.398 142.581 128.281 142.727 128.203 142.898C128.125 143.065 128.086 143.255 128.086 143.469C128.086 143.677 128.133 143.865 128.227 144.031C128.326 144.198 128.466 144.331 128.648 144.43C128.836 144.523 129.055 144.57 129.305 144.57C129.669 144.57 129.987 144.497 130.258 144.352C130.529 144.201 130.74 144.018 130.891 143.805C131.042 143.591 131.122 143.388 131.133 143.195L131.727 144.086C131.654 144.299 131.544 144.526 131.398 144.766C131.253 145.005 131.065 145.229 130.836 145.438C130.607 145.646 130.331 145.818 130.008 145.953C129.685 146.089 129.31 146.156 128.883 146.156C128.336 146.156 127.846 146.047 127.414 145.828C126.982 145.609 126.641 145.31 126.391 144.93C126.141 144.549 126.016 144.117 126.016 143.633C126.016 143.185 126.099 142.789 126.266 142.445C126.432 142.102 126.68 141.812 127.008 141.578C127.336 141.339 127.742 141.159 128.227 141.039C128.716 140.914 129.276 140.852 129.906 140.852H131.297ZM136.969 139.352V146H134.906V137.547H136.844L136.969 139.352ZM136.641 141.469H136.031C136.036 140.854 136.12 140.297 136.281 139.797C136.443 139.297 136.669 138.867 136.961 138.508C137.258 138.148 137.609 137.872 138.016 137.68C138.422 137.487 138.875 137.391 139.375 137.391C139.781 137.391 140.148 137.448 140.477 137.562C140.805 137.677 141.086 137.859 141.32 138.109C141.56 138.359 141.742 138.688 141.867 139.094C141.997 139.495 142.062 139.99 142.062 140.578V146H139.984V140.562C139.984 140.177 139.927 139.872 139.812 139.648C139.703 139.424 139.542 139.266 139.328 139.172C139.12 139.078 138.862 139.031 138.555 139.031C138.237 139.031 137.958 139.096 137.719 139.227C137.484 139.352 137.286 139.526 137.125 139.75C136.969 139.974 136.849 140.232 136.766 140.523C136.682 140.815 136.641 141.13 136.641 141.469ZM147.883 137.547V139.031H143.039V137.547H147.883ZM144.336 135.469H146.406V143.562C146.406 143.812 146.44 144.005 146.508 144.141C146.576 144.276 146.677 144.367 146.812 144.414C146.948 144.461 147.109 144.484 147.297 144.484C147.432 144.484 147.557 144.477 147.672 144.461C147.786 144.445 147.883 144.43 147.961 144.414L147.969 145.961C147.797 146.018 147.602 146.065 147.383 146.102C147.169 146.138 146.927 146.156 146.656 146.156C146.193 146.156 145.786 146.078 145.438 145.922C145.089 145.76 144.818 145.503 144.625 145.148C144.432 144.789 144.336 144.315 144.336 143.727V135.469Z" fill="#A8A8A8"/>
<path d="M14.9907 64.6722C12.5707 64.6722 10.3748 64.0672 8.40288 62.8572C6.431 61.6472 4.84006 60.0338 3.63004 58.0172C2.46484 55.9556 1.88224 53.6701 1.88224 51.1604V29.8507C1.88224 27.4307 2.46484 25.2123 3.63004 23.1956C4.84006 21.1341 6.431 19.4984 8.40288 18.2883C10.4196 17.0783 12.6155 16.4733 14.9907 16.4733C17.4556 16.4733 19.6739 17.0783 21.6458 18.2883C23.6625 19.4535 25.2534 21.0445 26.4186 23.0612C27.5838 25.0779 28.1664 27.341 28.1664 29.8507V32.943C28.1664 33.1222 28.0544 33.2119 27.8303 33.2119H20.3014C20.1221 33.2119 20.0325 33.1222 20.0325 32.943V30.3885C20.0325 28.6855 19.5395 27.2738 18.5536 26.1534C17.6124 25.0331 16.4248 24.4729 14.9907 24.4729C13.6911 24.4729 12.5259 25.0106 11.4951 26.0862C10.5092 27.1618 10.0162 28.4166 10.0162 29.8507V51.1604C10.0162 52.6393 10.5092 53.9165 11.4951 54.9921C12.4811 56.0229 13.6463 56.5382 14.9907 56.5382C16.4248 56.5382 17.6124 56.0229 18.5536 54.9921C19.5395 53.9614 20.0325 52.6841 20.0325 51.1604V47.8665H15.3269C15.1028 47.8665 14.9907 47.7544 14.9907 47.5304V40.0014C14.9907 39.7773 15.1028 39.6653 15.3269 39.6653H27.8976C28.0768 39.6653 28.1664 39.7773 28.1664 40.0014V51.1604C28.1664 53.6701 27.5614 55.9556 26.3514 58.0172C25.1862 60.0338 23.6177 61.6472 21.6458 62.8572C19.6739 64.0672 17.4556 64.6722 14.9907 64.6722ZM45.3887 64.6722C42.9686 64.6722 40.7503 64.0672 38.7336 62.8572C36.7617 61.6024 35.1708 59.9666 33.9608 57.9499C32.7507 55.8884 32.1457 53.6252 32.1457 51.1604L32.213 29.8507C32.213 27.3859 32.7956 25.1451 33.9608 23.1284C35.1708 21.1117 36.7841 19.4984 38.8008 18.2883C40.8175 17.0783 43.0135 16.4733 45.3887 16.4733C47.8087 16.4733 50.0047 17.0783 51.9765 18.2883C53.9484 19.4984 55.5169 21.1117 56.6821 23.1284C57.8922 25.1451 58.4972 27.3859 58.4972 29.8507L58.5644 51.1604C58.5644 53.6252 57.9594 55.8884 56.7494 57.9499C55.5842 59.9666 53.9932 61.6024 51.9765 62.8572C50.0047 64.0672 47.8087 64.6722 45.3887 64.6722ZM45.3887 56.5382C46.7331 56.5382 47.8983 56.0005 48.8843 54.9249C49.915 53.8045 50.4304 52.5497 50.4304 51.1604L50.3632 29.8507C50.3632 28.3718 49.8926 27.117 48.9515 26.0862C48.0104 25.0555 46.8228 24.5401 45.3887 24.5401C43.9994 24.5401 42.8118 25.0555 41.8258 26.0862C40.8399 27.0722 40.3469 28.327 40.3469 29.8507V51.1604C40.3469 52.6393 40.8399 53.9165 41.8258 54.9921C42.8118 56.0229 43.9994 56.5382 45.3887 56.5382ZM69.5443 64C69.3651 64 69.2754 63.888 69.2754 63.6639V25.3468H60.5364C60.3124 25.3468 60.2003 25.2347 60.2003 25.0106L60.2675 17.4817C60.2675 17.3024 60.3572 17.2128 60.5364 17.2128H86.0812C86.3053 17.2128 86.4173 17.3024 86.4173 17.4817V25.0106C86.4173 25.2347 86.3277 25.3468 86.1484 25.3468H77.3422L77.4094 63.6639C77.4094 63.888 77.3198 64 77.1405 64H69.5443ZM137.602 64C137.378 64 137.266 63.888 137.266 63.6639L137.333 17.4817C137.333 17.3024 137.423 17.2128 137.602 17.2128H145.131C145.311 17.2128 145.4 17.3024 145.4 17.4817L145.467 63.6639C145.467 63.888 145.378 64 145.199 64H137.602ZM151.985 64C151.627 64 151.448 63.8431 151.448 63.5294L151.38 17.7506C151.38 17.392 151.56 17.2128 151.918 17.2128H157.968L169.329 43.6986L168.993 17.7506C168.993 17.392 169.195 17.2128 169.598 17.2128H176.253C176.522 17.2128 176.656 17.392 176.656 17.7506L176.724 63.5967C176.724 63.8656 176.612 64 176.387 64H170.472L158.842 39.2619L159.313 63.4622C159.313 63.8207 159.111 64 158.708 64H151.985Z" fill="white"/>
<path d="M90.0736 64C89.8495 64 89.7375 63.888 89.7375 63.6639L89.8047 17.4817C89.8047 17.3024 89.8943 17.2128 90.0736 17.2128H97.6026C97.7818 17.2128 97.8715 17.3024 97.8715 17.4817L97.9387 63.6639C97.9387 63.888 97.8491 64 97.6698 64H90.0736ZM117.632 64.6722C114.764 64.6722 112.232 64.0672 110.036 62.8572C107.84 61.6024 106.115 59.9666 104.86 57.9499C103.65 55.8884 103.045 53.6252 103.045 51.1604L103.112 29.8507C103.112 27.3859 103.717 25.1451 104.927 23.1284C106.182 21.1117 107.907 19.4984 110.103 18.2883C112.299 17.0783 114.809 16.4733 117.632 16.4733C120.501 16.4733 123.01 17.0783 125.161 18.2883C127.313 19.4984 128.993 21.1117 130.203 23.1284C131.458 25.1451 132.085 27.3859 132.085 29.8507L132.153 51.1604C132.153 53.6252 131.525 55.8884 130.27 57.9499C129.06 59.9666 127.357 61.6024 125.161 62.8572C123.01 64.0672 120.501 64.6722 117.632 64.6722ZM124.019 51.1604L123.951 29.8507C123.951 28.2822 123.369 27.0049 122.204 26.019C121.038 25.0331 119.515 24.5401 117.632 24.5401C115.705 24.5401 114.159 25.0331 112.994 26.019C111.829 27.0049 111.246 28.2822 111.246 29.8507V51.1604C111.246 52.8186 111.829 54.1406 112.994 55.1266C114.159 56.0677 115.705 56.5382 117.632 56.5382C119.515 56.5382 121.038 56.0677 122.204 55.1266C123.414 54.1406 124.019 52.8186 124.019 51.1604Z" fill="#FDB515"/>
</svg>
